<svg width="144" height="154" viewBox="0 0 144 154" fill="none" xmlns="http://www.w3.org/2000/svg">
<g filter="url(#filter0_g_162_271)">
<path d="M60.9813 71.9508C61.358 69.2561 61.9239 62.7032 61.8818 57.7068C61.8439 53.2145 62.6391 49.0571 63.788 44.1413C65.1107 38.4814 67.3019 32.9232 68.383 29.196C69.7531 24.472 74.0594 20.2276 78.1231 15.952C82.2444 11.6157 87.3024 9.26444 93.0886 7.1697C99.555 4.82875 105.066 5.10835 106.781 5.66951C110.818 6.99001 114.285 26.4513 115.657 38.6784C116.106 42.685 114.712 47.9396 114.511 52.4036C114.327 56.4799 113.79 60.4607 113.269 64.8161C112.74 69.2488 110.308 73.435 108.868 78.3955C107.056 84.6374 106.155 89.1757 104.678 94.7288C103.128 100.558 100.992 104.221 99.4851 108.027C97.7451 112.42 94.6642 117.719 92.5798 122.361C90.9834 125.917 89.4373 129.252 87.2419 132.453C84.9032 135.862 83.1152 139.524 81.6394 142.733C81.2964 143.479 80.3866 143.849 79.7604 143.678C76.5152 142.791 74.5353 137.613 71.0018 135.166C67.6025 132.812 64.6296 130.025 59.6643 126.978C53.1301 122.968 45.6708 117.953 41.8381 114.693C35.8403 109.592 29.8511 105.321 23.0572 98.7732C17.717 93.6266 13.3908 87.7673 12.0431 84.4867C9.29815 77.8048 8.95965 65.3942 10.3344 60.8686C11.5943 56.721 13.7902 53.3349 16.546 50.7622C20.0102 47.5282 24.8559 43.3711 28.8224 40.8666C31.9153 38.9136 39.2585 37.1812 45.0116 37.8765C49.3161 38.3967 52.8167 42.018 55.9561 44.6696C59.0266 47.263 60.3364 50.9078 62.809 53.9815C65.0758 56.7994 66.188 60.4038 68.3836 63.5284C70.6528 66.7578 72.6191 69.7932 74.3843 72.997C75.2636 74.5929 76.2303 78.2211 76.6178 82.7002C76.762 84.3659 75.6963 84.8035 74.8665 85.1058C74.0367 85.4082 73.193 85.5633 72.3996 85.2731C68.735 83.9327 67.1021 79.6529 65.2707 75.2984C64.4875 73.4364 64.1927 70.2502 63.4519 68.5936C62.7112 66.937 61.8158 66.8109 60.9958 66.3758C60.1758 65.9407 59.4582 65.2005 58.4055 62.7334" stroke="black" stroke-opacity="0.8" stroke-width="1.37827" stroke-linecap="round"/>
</g>
<g filter="url(#filter1_g_162_271)">
<path d="M70.454 68.295C70.8307 65.6004 71.3966 59.0474 71.3544 54.0511C71.3166 49.5587 72.1118 45.4014 73.2606 40.4856C74.5833 34.8256 76.7746 29.2674 77.8556 25.5402C79.2258 20.8163 83.532 16.5719 87.5957 12.2962C91.7171 7.95993 96.775 5.60868 102.561 3.51394C109.028 1.17299 114.538 1.45259 116.254 2.01375C120.29 3.33425 123.758 22.7955 125.129 35.0226C125.579 39.0293 124.185 44.2838 123.984 48.7478C123.8 52.8242 123.263 56.805 122.742 61.1603C122.212 65.593 119.781 69.7792 118.341 74.7397C116.529 80.9817 115.627 85.52 114.151 91.073C112.601 96.9026 110.465 100.565 108.958 104.371C107.218 108.764 104.137 114.063 102.052 118.706C100.456 122.262 98.91 125.596 96.7146 128.797C94.3758 132.207 92.5879 135.868 91.1121 139.077C90.7691 139.823 89.8592 140.193 89.2331 140.022C85.9879 139.135 84.0079 133.957 80.4745 131.51C77.0751 129.156 74.1023 126.369 69.137 123.322C62.6027 119.312 55.1434 114.297 51.3107 111.037C45.313 105.936 39.3237 101.665 32.5298 95.1174C27.1896 89.9708 22.8634 84.1116 21.5157 80.831C18.7708 74.1491 18.4323 61.7384 19.807 57.2128C21.0669 53.0652 23.2628 49.6791 26.0187 47.1064C29.4828 43.8725 34.3286 39.7154 38.295 37.2108C41.388 35.2578 48.7312 33.5254 54.4842 34.2207C58.7887 34.741 62.2894 38.3623 65.4288 41.0138C68.4992 43.6072 69.8091 47.252 72.2816 50.3257C74.5484 53.1437 75.6607 56.748 77.8563 59.8727C80.1254 63.102 82.0917 66.1375 83.857 69.3413C84.7363 70.9372 85.703 74.5653 86.0905 79.0445C86.2346 80.7102 85.169 81.1477 84.3391 81.4501C83.5093 81.7524 82.6657 81.9075 81.8723 81.6173C78.2076 80.2769 76.5748 75.9972 74.7433 71.6426C73.9602 69.7807 73.6653 66.5945 72.9246 64.9378C72.1839 63.2812 71.2885 63.1551 70.4685 62.72C69.6484 62.285 68.9308 61.5447 67.8781 59.0777" stroke="black" stroke-opacity="0.8" stroke-width="1.5" stroke-linecap="round"/>
</g>
<defs>
<filter id="filter0_g_162_271" x="8.03143" y="3.7639" width="109.23" height="141.472" filterUnits="userSpaceOnUse" color-interpolation-filters="sRGB">
<feFlood flood-opacity="0" result="BackgroundImageFix"/>
<feBlend mode="normal" in="SourceGraphic" in2="BackgroundImageFix" result="shape"/>
<feTurbulence type="fractalNoise" baseFrequency="1.2221355438232422 1.2221355438232422" numOctaves="3" seed="1565" />
<feDisplacementMap in="shape" scale="1.6539274454116821" xChannelSelector="R" yChannelSelector="G" result="displacedImage" width="100%" height="100%" />
<feMerge result="effect1_texture_162_271">
<feMergeNode in="displacedImage"/>
</feMerge>
</filter>
<filter id="filter1_g_162_271" x="17.4426" y="0.0473456" width="109.352" height="141.593" filterUnits="userSpaceOnUse" color-interpolation-filters="sRGB">
<feFlood flood-opacity="0" result="BackgroundImageFix"/>
<feBlend mode="normal" in="SourceGraphic" in2="BackgroundImageFix" result="shape"/>
<feTurbulence type="fractalNoise" baseFrequency="1.2221355438232422 1.2221355438232422" numOctaves="3" seed="1565" />
<feDisplacementMap in="shape" scale="1.6539274454116821" xChannelSelector="R" yChannelSelector="G" result="displacedImage" width="100%" height="100%" />
<feMerge result="effect1_texture_162_271">
<feMergeNode in="displacedImage"/>
</feMerge>
</filter>
</defs>
</svg>
