<svg width="107" height="41" viewBox="0 0 107 41" fill="none" xmlns="http://www.w3.org/2000/svg">
<g filter="url(#filter0_g_162_286)">
<path d="M1.57715 1.5769C11.1946 1.5769 27.9724 2.44882 33.2633 4.21247C38.9481 6.1074 45.1465 8.60507 52.6304 10.8179C58.7898 12.639 64.9627 15.2105 72.4467 17.6413C82.8155 21.0091 95.3476 28.8705 100.857 32.1666C102.486 33.1416 104.146 34.5776 104.826 34.3794C105.507 34.1812 105.071 32.4374 104.846 27.8334C104.622 23.2295 104.622 15.8182 104.622 8.18232" stroke="black" stroke-opacity="0.8" stroke-width="1.5" stroke-linecap="round"/>
</g>
<g filter="url(#filter1_g_162_286)">
<path d="M104.964 34.9636C103.741 34.9636 99.8119 35.4515 95.0624 35.7638C92.3928 35.9394 90.1873 36.3164 88.707 36.8098C87.0337 37.3676 85.0128 37.4252 83.2257 37.6119C81.6826 38.0425 80.2079 38.2901 78.7276 38.5969C78.3562 38.6597 77.9902 38.6597 76.874 39.0293" stroke="black" stroke-opacity="0.8" stroke-width="1.5" stroke-linecap="round"/>
</g>
<defs>
<filter id="filter0_g_162_286" x="0.000184715" y="-5.94258e-05" width="106.769" height="35.9747" filterUnits="userSpaceOnUse" color-interpolation-filters="sRGB">
<feFlood flood-opacity="0" result="BackgroundImageFix"/>
<feBlend mode="normal" in="SourceGraphic" in2="BackgroundImageFix" result="shape"/>
<feTurbulence type="fractalNoise" baseFrequency="1.2221355438232422 1.2221355438232422" numOctaves="3" seed="1565" />
<feDisplacementMap in="shape" scale="1.6539274454116821" xChannelSelector="R" yChannelSelector="G" result="displacedImage" width="100%" height="100%" />
<feMerge result="effect1_texture_162_286">
<feMergeNode in="displacedImage"/>
</feMerge>
</filter>
<filter id="filter1_g_162_286" x="75.2971" y="33.3867" width="31.2438" height="7.21985" filterUnits="userSpaceOnUse" color-interpolation-filters="sRGB">
<feFlood flood-opacity="0" result="BackgroundImageFix"/>
<feBlend mode="normal" in="SourceGraphic" in2="BackgroundImageFix" result="shape"/>
<feTurbulence type="fractalNoise" baseFrequency="1.2221355438232422 1.2221355438232422" numOctaves="3" seed="1565" />
<feDisplacementMap in="shape" scale="1.6539274454116821" xChannelSelector="R" yChannelSelector="G" result="displacedImage" width="100%" height="100%" />
<feMerge result="effect1_texture_162_286">
<feMergeNode in="displacedImage"/>
</feMerge>
</filter>
</defs>
</svg>
