<svg width="135" height="27" viewBox="0 0 135 27" fill="none" xmlns="http://www.w3.org/2000/svg">
<path d="M112.095 20.9583H80.9096V7.07779H86.6653V18.359H93.5552V7.07779H99.3109V18.359H106.284V7.07779H112.095V20.9583ZM16.6576 7.07779H0.0550605V9.4558H12.9772C13.863 9.4558 14.6094 9.81525 14.6094 10.8105V11.5013H3.48594C1.13425 11.5025 0 12.7459 0 14.4612V17.8626C0 19.5767 1.13425 20.9595 3.48594 20.9595H20.1436V9.87149C20.1448 7.90795 18.5946 7.07779 16.6576 7.07779ZM14.6106 13.9355V18.3321H7.3047C5.78258 18.3321 5.5342 17.8063 5.5342 16.9774V15.2902C5.5342 14.4612 5.97713 13.9355 7.3047 13.9355H14.6106ZM131.382 7.07779H114.779V9.4558H127.701C128.587 9.4558 129.334 9.81525 129.334 10.8105V11.5013H117.934C115.913 11.5013 114.724 12.7459 114.724 14.46V17.8614C114.724 19.4092 115.858 20.9583 117.934 20.9583H134.868V9.87149C134.868 7.90795 133.319 7.07779 131.382 7.07779ZM129.334 13.9355V18.3321H121.862C120.507 18.3321 120.257 17.475 120.257 17.0324V15.2902C120.257 14.5431 120.7 13.9355 121.862 13.9355H129.334ZM72.1929 13.4929V20.9583H78.0037V7.07779H72.1929L62.6185 17.6951L63.4481 17.0043C63.4481 16.4786 63.5313 15.981 63.4762 14.8757V7.07779H57.6667V20.9583H63.5325L73.1069 10.3129L72.3043 10.9486C72.2492 11.5025 72.1929 12.6358 72.1929 13.4929ZM51.4131 7.07779H41.8387V0H35.9998V7.07779H26.4254C24.4603 7.07779 22.773 7.98987 22.773 10.0916V17.8063C22.773 19.908 24.4616 20.9583 26.4254 20.9583H35.9998V26.9308H41.8387V20.9583H51.4131C53.3781 20.9583 55.0385 19.908 55.0385 17.8063V10.0916C55.0373 7.99109 53.3769 7.07779 51.4131 7.07779ZM35.9998 9.4558V18.359H29.9126C29.083 18.359 28.3635 17.9164 28.3635 16.838V10.9498C28.3635 9.92651 29.083 9.45702 29.9126 9.45702H35.9998V9.4558ZM49.475 10.9498V16.8392C49.475 17.9176 48.7555 18.3602 47.8696 18.3602H41.8374V9.4558H47.8696C48.7567 9.4558 49.475 9.92651 49.475 10.9498Z" fill="#1C1A1B"/>
</svg>
