<svg width="109" height="28" viewBox="0 0 109 28" fill="none" xmlns="http://www.w3.org/2000/svg">
<path d="M96.2266 0V18.6365H99.528V13.0883L104.365 18.6365H108.651L102.668 11.7585L108.238 5.73162H104.044L99.528 10.7058V0H96.2266Z" fill="#1C1A1B"/>
<mask id="mask0_99_2731" style="mask-type:luminance" maskUnits="userSpaceOnUse" x="0" y="0" width="109" height="28">
<path d="M108.651 0H0V27.2844H108.651V0Z" fill="white"/>
</mask>
<g mask="url(#mask0_99_2731)">
<path d="M89.2811 5.1814C87.3791 5.1814 86.1631 6.19017 85.567 7.15308V5.73164H82.2656V18.6365H85.567V10.7516C85.567 8.96335 86.4382 8.138 87.9514 8.138C89.4645 8.138 90.2661 8.96335 90.2661 10.7516V18.6365H93.5675V10.5902C93.5675 7.05954 92.0782 5.17957 89.2811 5.17957" fill="#1C1A1B"/>
<path d="M29.8889 4.65316C29.8889 3.39312 30.4153 2.81904 31.6313 2.81904H35.3454V0H30.6922C28.0089 0 26.5875 1.3976 26.5875 4.03506V6.53313H23.6309V9.51357H26.5875V18.6365H29.8889V9.51357H33.1206V6.53313H29.8889V4.65316Z" fill="#1C1A1B"/>
<path d="M21.9118 0H18.6104V18.6365H21.9118V0Z" fill="#1C1A1B"/>
<path d="M17.6432 23.6179H-0.000976562V27.2843H17.6432V23.6179Z" fill="#1C1A1B"/>
<path d="M12.0303 3.11789C11.5278 1.61758 10.9482 0.432739 8.96003 0.432739C6.97185 0.432739 6.35559 1.61208 5.82736 3.11789L0.367188 18.6364H3.98774L5.24778 14.948H12.2138L13.3821 18.6364H17.2319L12.0303 3.11789ZM6.3024 11.8318L8.77662 4.47697H8.86833L11.205 11.8318H6.30056H6.3024Z" fill="#1C1A1B"/>
<path d="M79.3792 14.6711V10.3389C79.3792 7.17508 77.3616 5.1814 73.9703 5.1814C70.5791 5.1814 68.6055 7.29063 68.446 9.49158H71.7932C71.907 9.01104 72.4113 8.18568 73.9703 8.18568C75.2542 8.18568 76.0796 8.78177 76.0796 10.3408H72.802C69.8674 10.3408 68.125 11.8759 68.125 14.4437C68.125 17.0115 70.0306 18.9593 72.7782 18.9593C74.792 18.9593 75.9108 18.0074 76.4005 17.2866C76.8352 18.1578 77.7981 18.6383 79.06 18.6383H80.2063V15.6579C79.6103 15.6579 79.381 15.3828 79.381 14.673M76.0796 13.8256C76.0796 15.3149 75.025 16.1641 73.6494 16.1641C72.4572 16.1641 71.5181 15.7294 71.5181 14.4455C71.5181 13.1616 72.5489 12.9782 73.4439 12.9782H76.0796V13.8256Z" fill="#1C1A1B"/>
<path d="M45.132 14.6711V10.3389C45.132 7.17508 43.1144 5.1814 39.7213 5.1814C36.3282 5.1814 34.3565 7.29063 34.1969 9.49158H37.5442C37.6579 9.01104 38.1641 8.18568 39.7213 8.18568C41.0052 8.18568 41.8306 8.78177 41.8306 10.3408H38.553C35.6184 10.3408 33.876 11.8759 33.876 14.4437C33.876 17.0115 35.7816 18.9593 38.5291 18.9593C40.543 18.9593 41.6618 18.0074 42.1515 17.2866C42.588 18.1578 43.5491 18.6383 44.811 18.6383H45.9573V15.6579C45.3612 15.6579 45.132 15.3828 45.132 14.673M41.8306 13.8256C41.8306 15.3149 40.7759 16.1641 39.4003 16.1641C38.2082 16.1641 37.2691 15.7294 37.2691 14.4455C37.2691 13.1616 38.2999 12.9782 39.1949 12.9782H41.8306V13.8256Z" fill="#1C1A1B"/>
<path d="M63.6098 9.16879C64.8478 8.61855 65.9703 7.33467 65.9703 5.52439C65.9703 2.47609 63.9766 0.641968 60.6293 0.641968H52.0566V18.6365H60.3322C64.1838 18.6365 66.3609 16.7345 66.3609 13.4111C66.3609 11.0506 65.0092 9.69701 63.6098 9.17062M55.4718 3.78381H60.2405C61.6619 3.78381 62.4176 4.44776 62.4176 5.80134C62.4176 7.15492 61.6619 7.81888 60.2625 7.81888H55.4718V3.78198V3.78381ZM59.9415 15.4965H55.4718V10.9112H59.9415C61.8435 10.9112 62.8064 11.6907 62.8064 13.2038C62.8064 14.717 61.8215 15.4965 59.9415 15.4965Z" fill="#1C1A1B"/>
</g>
</svg>
