<svg width="111" height="51" viewBox="0 0 111 51" fill="none" xmlns="http://www.w3.org/2000/svg">
<path d="M53.751 0.320068L63.518 0.320068L63.518 4.16119L60.5718 4.16119L60.5718 22.7266L56.7291 22.7266L56.7291 4.16119L53.751 4.16119L53.751 0.320068Z" fill="#1C1A1B"/>
<path d="M48.712 1.47254e-10C49.3951 1.67137e-10 50.0249 0.128038 50.6013 0.384113C51.1991 0.640186 51.7114 0.992289 52.1384 1.44042C52.5867 1.86721 52.939 2.37936 53.1952 2.97687C53.4513 3.55303 53.5794 4.18255 53.5794 4.86542L53.5794 5.98574L49.6726 5.98574C49.6726 5.72967 49.662 5.47359 49.6406 5.21752C49.6406 4.96144 49.5979 4.73738 49.5125 4.54532C49.4485 4.35327 49.3417 4.19322 49.1923 4.06518C49.0429 3.93715 48.8187 3.87313 48.5198 3.87313C48.1142 3.87313 47.8473 4.04384 47.7192 4.38528C47.6125 4.70537 47.5591 5.02546 47.5591 5.34556C47.5591 6.09244 47.7086 6.77531 48.0075 7.39415C48.3063 8.013 48.6799 8.61051 49.1283 9.18667C49.5766 9.7415 50.0569 10.307 50.5693 10.8832C51.0816 11.438 51.562 12.0462 52.0103 12.7077C52.4586 13.3479 52.8322 14.0628 53.1311 14.8523C53.43 15.6419 53.5794 16.5381 53.5794 17.5411C53.5794 18.2666 53.462 18.9709 53.2272 19.6537C52.9924 20.3152 52.6508 20.9021 52.2025 21.4142C51.7755 21.905 51.2418 22.2998 50.6013 22.5986C49.9822 22.8973 49.2884 23.0467 48.5198 23.0467C47.858 23.0467 47.2282 22.9187 46.6305 22.6626C46.0327 22.4065 45.5203 22.0544 45.0934 21.6063C44.6664 21.1582 44.3248 20.646 44.0686 20.0698C43.8125 19.4723 43.6844 18.8428 43.6844 18.1813L43.6844 17.029L47.5591 17.029C47.5591 17.221 47.5485 17.4451 47.5271 17.7012C47.5271 17.9359 47.5485 18.1706 47.5912 18.4054C47.6552 18.6188 47.7513 18.8001 47.8794 18.9495C48.0288 19.0989 48.2423 19.1736 48.5198 19.1736C48.8827 19.1736 49.171 19.0242 49.3844 18.7255C49.5979 18.4267 49.7047 18.1066 49.7047 17.7652C49.7047 17.0183 49.5552 16.3461 49.2563 15.7486C48.9575 15.1297 48.5839 14.5429 48.1355 13.9881C47.6872 13.4119 47.1962 12.8357 46.6625 12.2596C46.1501 11.6621 45.6698 11.0325 45.2215 10.371C44.7731 9.68815 44.3995 8.9306 44.1007 8.09836C43.8018 7.26612 43.6523 6.32717 43.6523 5.28154C43.6523 4.53465 43.7698 3.84112 44.0046 3.20093C44.2608 2.56075 44.6024 2.00592 45.0293 1.53645C45.4776 1.04564 46.0114 0.672195 46.6305 0.416121C47.2496 0.138707 47.9434 1.24886e-10 48.712 1.47254e-10Z" fill="#1C1A1B"/>
<path d="M33.748 22.7265L33.748 0.319946L42.4903 0.319946L42.4903 4.16106L37.5908 4.16106L37.5908 9.60265L41.4656 9.60265L41.4656 13.4438L37.5908 13.4438L37.5908 18.8853L42.5223 18.8853L42.5223 22.7265L33.748 22.7265Z" fill="#1C1A1B"/>
<path d="M22.8643 0.352077L27.5076 0.320068C28.1907 0.320068 28.8312 0.458776 29.4289 0.73619C30.0267 0.992265 30.5497 1.34437 30.9981 1.7925C31.4464 2.24063 31.7986 2.76345 32.0548 3.36095C32.311 3.95846 32.4391 4.59865 32.4391 5.28151L32.4711 7.49016C32.4711 8.23704 32.3751 8.96258 32.1829 9.66679C32.0121 10.3497 31.6492 10.9685 31.0941 11.5233L31.0941 11.5553C31.6919 12.1102 32.0655 12.761 32.2149 13.5079C32.3857 14.2548 32.4711 15.0123 32.4711 15.7806L32.4711 17.0289C32.4711 18.7574 32.0228 20.1445 31.1262 21.1901C30.2509 22.2144 28.9166 22.7266 27.1233 22.7266L22.8643 22.7266L22.8643 0.352077ZM27.2194 18.9815C27.7958 18.9815 28.1801 18.8428 28.3722 18.5654C28.5643 18.288 28.6604 17.8612 28.6604 17.285L28.6284 15.4925C28.6284 15.0444 28.5857 14.6923 28.5003 14.4362C28.4149 14.1801 28.2868 13.9987 28.116 13.892C27.9452 13.764 27.7317 13.6893 27.4756 13.668C27.2407 13.6466 26.9632 13.6359 26.643 13.6359L26.6109 13.6359L26.6109 18.9815L27.2194 18.9815ZM27.2194 9.44272C27.5183 9.44272 27.8278 9.36804 28.148 9.21866C28.4683 9.06928 28.6284 8.79187 28.6284 8.38642L28.6284 5.50558C28.6284 4.92941 28.5003 4.5453 28.2441 4.35324C28.0093 4.16119 27.6143 4.06516 27.0593 4.06516L26.6109 4.06516L26.6109 9.44272L27.2194 9.44272Z" fill="#1C1A1B"/>
<path d="M15.291 0.320068L15.291 9.57076L17.3725 9.57076L17.3725 0.320068L21.2152 0.320068L21.2152 22.7266L17.3725 22.7266L17.3725 13.4119L15.291 13.4119L15.291 22.7266L11.4482 22.7266L11.4482 0.320068L15.291 0.320068Z" fill="#1C1A1B"/>
<path d="M-6.52116e-10 22.7265L0 0.319946L3.39443 0.319946L3.39443 11.3312L6.37255 0.319946L9.799 0.319946L9.799 22.7265L6.37255 22.7265L6.37255 11.7473L3.42645 22.7265L-6.52116e-10 22.7265Z" fill="#1C1A1B"/>
<path d="M105.871 28.5004C106.555 28.5004 107.196 28.6392 107.795 28.9167C108.415 29.173 108.949 29.536 109.398 30.0057C109.869 30.4542 110.232 30.988 110.489 31.6072C110.767 32.2051 110.906 32.8457 110.906 33.529V45.8924C110.906 46.5756 110.767 47.2269 110.489 47.8461C110.232 48.444 109.869 48.9779 109.398 49.4476C108.949 49.896 108.415 50.259 107.795 50.5366C107.196 50.7929 106.555 50.921 105.871 50.921H100.996V28.5004H105.871ZM104.877 47.0454H105.871C106.17 47.0454 106.437 46.928 106.673 46.6931C106.908 46.4582 107.025 46.1913 107.025 45.8924V33.529C107.025 33.23 106.908 32.9631 106.673 32.7283C106.437 32.4934 106.17 32.3759 105.871 32.3759H104.877V47.0454Z" fill="#1C1A1B"/>
<path d="M89.5625 50.9532V28.5326H92.9619V28.5646L95.9445 39.5507V28.5326H99.376V50.9532H95.9445L92.9619 39.9671V50.9532H89.5625Z" fill="#1C1A1B"/>
<path d="M79.1631 50.9531V28.5325H87.9182V32.376H83.0115V37.821H86.892V41.6645H83.0115V47.1095H87.9503V50.9531H79.1631Z" fill="#1C1A1B"/>
<path d="M67.416 50.9531V28.5646H71.3286V39.0062L73.8301 28.5646H77.8388L75.0808 39.7428L77.8709 50.9852H73.8621L71.3286 40.2553V50.9531H67.416ZM67.416 50.9531V28.5646H71.3286V39.0062L73.8301 28.5646H77.8388L75.0808 39.7428L77.8709 50.9852H73.8621L71.3286 40.2553V50.9531H67.416Z" fill="#1C1A1B"/>
<path d="M57.0176 50.9531V28.5325H65.7727V32.376H60.866V37.821H64.7465V41.6645H60.866V47.1095H65.8048V50.9531H57.0176Z" fill="#1C1A1B"/>
<path d="M46.6162 50.953V28.5323H55.3714V32.3759H50.4646V37.8209H54.3451V41.6644H50.4646V47.1094H55.4034V50.953H46.6162Z" fill="#1C1A1B"/>
<path d="M26.8682 28.5325H30.7487L32.5446 48.0704L34.3405 28.5325H38.221L40.0169 48.0704L41.8129 28.5325H45.6613L43.2881 50.9531H37.3872L36.2647 38.9741L35.1743 50.9531H29.2734L26.8682 28.5325Z" fill="#1C1A1B"/>
</svg>
