<svg width="128" height="32" viewBox="0 0 128 32" fill="none" xmlns="http://www.w3.org/2000/svg">
<path d="M124.959 1.37401C124.078 1.37401 123.509 0.833883 123.509 0H124.476C124.495 0.341134 124.637 0.625413 124.969 0.625413C125.31 0.625413 125.49 0.341134 125.528 0H126.494C126.39 0.852836 125.755 1.37401 124.959 1.37401ZM122.401 8.55678H120.875L121.946 1.78148H123.481L122.77 6.35836L126.305 1.78148H127.83L126.76 8.55678H125.224L125.945 3.9799L122.401 8.55678Z" fill="#1C1A1B"/>
<path d="M115.117 8.5568H113.592L114.663 1.78149H116.198L115.487 6.35838L119.022 1.78149H120.547L119.476 8.5568H117.941L118.661 3.97991L115.117 8.5568Z" fill="#1C1A1B"/>
<path d="M107.077 8.5568L108.148 1.78149H109.683L109.219 4.69061L112.071 1.78149H113.748L110.507 5.03174L112.734 8.5568H111.057L109.105 5.42026L108.612 8.5568H107.077Z" fill="#1C1A1B"/>
<path d="M103.315 8.66102C101.363 8.66102 100.122 7.58076 100.122 5.68557C100.122 3.40187 101.572 1.67725 103.837 1.67725C105.457 1.67725 106.575 2.50165 106.651 4.14099H105.125C105.021 3.32606 104.623 2.88069 103.789 2.88069C102.453 2.88069 101.733 4.13152 101.724 5.63819C101.714 6.71845 102.216 7.43862 103.334 7.43862C104.159 7.43862 104.727 6.95535 104.964 6.12147H106.471C106.168 7.76081 104.888 8.66102 103.315 8.66102Z" fill="#1C1A1B"/>
<path d="M96.7475 8.5568H94.0469L95.1177 1.78149H96.6149L96.1979 4.40633H96.9655C98.3679 4.40633 99.3345 4.94646 99.3345 6.3489C99.3345 7.77977 98.2352 8.5568 96.7475 8.5568ZM95.7146 7.49549H96.577C97.4108 7.49549 97.8467 7.02169 97.8467 6.32047C97.8467 5.73296 97.5056 5.45816 96.7759 5.45816H96.0273L95.7146 7.49549Z" fill="#1C1A1B"/>
<path d="M89.4932 5.8372C89.0573 7.55235 88.4982 8.64208 87.1811 8.64208C86.7452 8.64208 86.5651 8.54732 86.5557 8.53784L86.7357 7.36283C86.7357 7.36283 86.821 7.41021 87.0579 7.41021C87.598 7.41021 87.8918 6.69951 88.2234 5.42026C88.5835 4.03677 89.0289 1.78149 89.0289 1.78149H93.6437L92.5729 8.5568H91.0378L91.919 2.99442H90.1376C90.0523 3.37345 89.7775 4.70956 89.4932 5.8372Z" fill="#1C1A1B"/>
<path d="M81.3867 8.5568L82.4575 1.78149H86.8449L86.6553 2.97546H83.7936L83.5472 4.55795H85.8499L85.6793 5.67611H83.3767L83.1019 7.36283H86.1436L85.9541 8.5568H81.3867Z" fill="#1C1A1B"/>
<path d="M77.0411 8.5568L77.9128 2.97546H76.084L76.283 1.78149H81.4853L81.2863 2.97546H79.4574L78.5856 8.5568H77.0411Z" fill="#1C1A1B"/>
<path d="M73.0631 3.03232L71.7081 5.96039H73.4895L73.0631 3.03232ZM73.8781 8.5568L73.6506 7.05012H71.1964L70.5046 8.5568H69.0264L72.324 1.78149H74.3234L75.4511 8.5568H73.8781Z" fill="#1C1A1B"/>
<path d="M60.9814 8.5568L62.0522 1.78149H64.0138L64.9424 5.98881L67.1692 1.78149H69.216L68.1453 8.5568H66.6196L67.3777 3.78092L64.7434 8.5568H64.2412L63.1135 3.78092L62.3555 8.5568H60.9814Z" fill="#1C1A1B"/>
<path d="M55.2229 8.5568H53.6973L54.768 1.78149H56.3032L55.5925 6.35838L59.127 1.78149H60.6526L59.5818 8.5568H58.0467L58.7669 3.97991L55.2229 8.5568Z" fill="#1C1A1B"/>
<path d="M46.4424 8.5568L47.5132 1.78149H49.0483L48.6124 4.54847H51.3225L51.7679 1.78149H53.303L52.2322 8.5568H50.6971L51.133 5.76139H48.4134L47.9775 8.5568H46.4424Z" fill="#1C1A1B"/>
<path d="M40.6848 8.5568H39.1592L40.23 1.78149H41.7651L41.0544 6.35838L44.5889 1.78149H46.1145L45.0437 8.5568H43.5086L44.2288 3.97991L40.6848 8.5568Z" fill="#1C1A1B"/>
<path d="M33.208 8.5568L34.2788 1.78149H36.5151C37.9934 1.78149 38.8652 2.46376 38.8652 3.65773C38.8652 5.3255 37.6807 6.09305 36.1171 6.09305H35.1316L34.7431 8.5568H33.208ZM35.2927 5.02227H36.0887C36.9415 5.02227 37.3964 4.58637 37.3964 3.79039C37.3964 3.22184 37.0458 2.93756 36.3445 2.93756H35.6244L35.2927 5.02227Z" fill="#1C1A1B"/>
<path d="M30.2049 8.5568L31.0766 2.99442H28.4613L27.58 8.5568H26.0449L27.1157 1.78149H32.8107L31.74 8.5568H30.2049Z" fill="#1C1A1B"/>
<path d="M21.2223 5.29707C20.9854 6.23519 20.7296 6.89851 20.4169 7.34388H22.9375L23.6197 2.99442H21.8193C21.7151 3.37345 21.4118 4.59585 21.2223 5.29707ZM19.5261 8.5568L19.2798 9.78867H17.9531L18.3322 7.34388H18.7302C19.2892 7.10698 19.583 6.36785 19.8862 5.20231C20.18 4.07467 20.7391 1.78149 20.7391 1.78149H25.3538L24.4726 7.34388H25.496L25.1075 9.78867H23.7714L23.923 8.5568H19.5261Z" fill="#1C1A1B"/>
<path d="M13.1162 8.5568L14.187 1.78149H18.5744L18.3848 2.97546H15.5231L15.2767 4.55795H17.5794L17.4088 5.67611H15.1062L14.8314 7.36283H17.8731L17.6836 8.5568H13.1162Z" fill="#1C1A1B"/>
<path d="M7.16699 8.5568L8.23777 1.78149H10.4741C11.9523 1.78149 12.8241 2.46376 12.8241 3.65773C12.8241 5.3255 11.6396 6.09305 10.0761 6.09305H9.09061L8.7021 8.5568H7.16699ZM9.2517 5.02227H10.0477C10.9005 5.02227 11.3554 4.58637 11.3554 3.79039C11.3554 3.22184 11.0048 2.93756 10.3035 2.93756H9.58336L9.2517 5.02227Z" fill="#1C1A1B"/>
<path d="M4.16287 8.5568L5.03466 2.99442H2.4193L1.53803 8.5568H0.00292969L1.07371 1.78149H6.76875L5.69797 8.5568H4.16287Z" fill="#1C1A1B"/>
<path d="M101.976 22.2032V21.2367C101.976 15.9719 106.02 11.9279 114.998 11.9279C123.773 11.9279 127.486 15.336 127.969 20.9061H117.821C117.592 20.0668 116.855 19.3037 114.972 19.3037C112.963 19.3037 112.022 20.2702 112.022 21.6182V21.8217C112.022 23.1697 112.963 24.1362 114.972 24.1362C116.855 24.1362 117.592 23.3732 117.821 22.5339H127.969C127.486 28.1039 123.773 31.5121 114.998 31.5121C106.02 31.5121 101.976 27.4681 101.976 22.2032Z" fill="#1C1A1B"/>
<path d="M75.0811 22.2032V21.2367C75.0811 15.9719 79.1251 11.9279 88.1033 11.9279C96.8781 11.9279 100.591 15.336 101.075 20.9061H90.9265C90.6976 20.0668 89.96 19.3037 88.0779 19.3037C86.0686 19.3037 85.1275 20.2702 85.1275 21.6182V21.8217C85.1275 23.1697 86.0686 24.1362 88.0779 24.1362C89.96 24.1362 90.6976 23.3732 90.9265 22.5339H101.075C100.591 28.1039 96.8781 31.5121 88.1033 31.5121C79.1251 31.5121 75.0811 27.4681 75.0811 22.2032Z" fill="#1C1A1B"/>
<path d="M69.4812 12.4366L76.8317 31.0035H67.3448L66.6581 29.0451H60.91L60.2232 31.0035H50.7363L58.0613 12.4366H69.4812ZM65.1066 23.3479L63.784 19.1767L62.4614 23.3479H65.1066Z" fill="#1C1A1B"/>
<path d="M28.9834 20.2703L29.2632 12.4366H50.933V31.0035H41.5733V19.4056H37.9871L37.9108 21.3386C37.631 28.3329 34.7315 31.385 28.8308 31.385C27.0759 31.385 25.5753 31.1307 24.9648 31.0035V23.7294C25.3972 23.7802 25.9822 23.8311 26.5163 23.8311C28.0678 23.8311 28.9071 22.9918 28.9834 20.2703Z" fill="#1C1A1B"/>
<path d="M25.5104 31.0035H14.5229L10.9621 24.6704L9.46148 26.2474V31.0035H0V12.4366H9.46148V18.5663L14.1922 12.4366H25.3323L19.2536 20.3466L25.5104 31.0035Z" fill="#1C1A1B"/>
</svg>
