<svg width="197" height="27" viewBox="0 0 197 27" fill="none" xmlns="http://www.w3.org/2000/svg">
<path d="M191.054 4.06653V12.5219H179.629V4.06653H174.014V26.4636H179.629V17.4273H191.054V26.4636H196.669V4.06653H191.054Z" fill="#1C1A1B"/>
<path d="M97.5272 6.58355C97.14 5.67992 96.4945 4.90536 95.6554 4.389C94.8164 3.87264 93.9127 3.54993 92.88 3.54993C91.9118 3.54993 90.9436 3.87264 90.1046 4.389C89.2655 4.90536 88.62 5.67992 88.2328 6.58355L79.0674 26.4634H85.0055L87.0064 21.7516H98.6245L100.625 26.4634H106.564L97.5272 6.58355ZM89.0073 17.298L92.4927 9.16535C92.5573 9.1008 92.5573 8.97169 92.6864 8.90715C92.7509 8.84261 92.88 8.84262 92.9445 8.84262C93.0736 8.84262 93.1382 8.84261 93.2027 8.90715C93.2672 8.97169 93.3318 9.03626 93.3964 9.16535L96.8172 17.298H89.0073Z" fill="#1C1A1B"/>
<path d="M30.788 0C28.1416 0 26.4634 1.41999 25.2371 4.19542L17.879 21.1062L10.5854 4.25999C9.359 1.42001 7.68084 0.0645686 5.0345 0.0645686C2.58179 0.0645686 0 1.80727 0 5.61542V26.4634H5.61542V6.19634L12.9735 22.9135C13.9417 25.2371 15.5553 26.7216 17.879 26.7216C20.2026 26.7216 21.8162 25.2371 22.7844 22.9135L30.1425 6.19634V26.528H35.7579V5.61542C35.8224 1.80727 33.3052 0 30.788 0Z" fill="#1C1A1B"/>
<path d="M45.5682 21.7519C45.5036 21.7519 45.4391 21.7519 45.3746 21.6873C45.31 21.6873 45.2455 21.6228 45.2455 21.5582C45.1809 21.4937 45.1809 21.4291 45.1164 21.4291C45.1164 21.3646 45.0518 21.3001 45.0518 21.2355V17.2337H59.0581V12.7156H45.0518V9.29469C45.0518 9.23015 45.0518 9.16561 45.1164 9.10107C45.1164 9.03652 45.1809 8.97197 45.2455 8.97197C45.31 8.90742 45.31 8.90742 45.3746 8.84287C45.4391 8.84287 45.5036 8.77834 45.5682 8.77834H59.4453V4.06653H42.8573C41.9537 4.06653 41.1146 4.4538 40.4692 5.0347C39.8237 5.68015 39.501 6.51924 39.501 7.42287V23.1073C39.501 24.0109 39.8882 24.85 40.4692 25.4955C41.1146 26.1409 41.9537 26.4636 42.8573 26.4636H59.4453V21.7519H45.5682Z" fill="#1C1A1B"/>
<path d="M68.9348 26.4636V9.23012C68.9348 9.10103 68.9993 8.97194 69.0639 8.9074C69.1284 8.84285 69.2575 8.77834 69.3866 8.77834H83.2637V4.06653H66.6757C65.7721 4.06653 64.933 4.4538 64.2875 5.0347C63.6421 5.68015 63.3193 6.51924 63.3193 7.42287V26.4636H68.9348Z" fill="#1C1A1B"/>
<path d="M170.334 15.2329C170.334 7.35845 166.978 3.7439 158.458 3.7439H156.522C148.002 3.7439 144.646 7.42299 144.646 15.2329C144.646 23.0429 148.066 26.7219 156.586 26.7219H158.458C166.849 26.7219 170.334 22.9783 170.334 15.2329ZM158.394 22.0747H156.586C151.875 22.0747 150.067 19.9447 150.067 15.2975C150.067 10.6502 151.681 8.52024 156.586 8.52024H158.394C163.17 8.52024 164.913 10.7793 164.913 15.2975C164.913 19.8156 163.041 22.0101 158.394 22.0747Z" fill="#1C1A1B"/>
<path d="M128.961 0.516602H117.859C109.533 0.516602 106.241 4.71206 106.241 12.0056C106.241 13.0384 106.306 14.1356 106.499 15.1683C107.403 20.3319 110.437 23.5592 118.182 23.5592H120.635V26.3992H126.25V23.5592H128.703C136.448 23.5592 139.546 20.3965 140.386 15.1683C140.515 14.1356 140.644 13.0384 140.644 12.0056C140.579 4.7766 137.287 0.581147 128.961 0.516602ZM120.57 18.9119H117.988C114.18 18.9119 112.825 17.4919 111.986 15.2974C111.728 14.2647 111.598 13.1674 111.663 12.1347C111.663 7.35837 113.858 5.35747 117.085 5.35747H120.506L120.57 18.9119ZM134.77 15.2329C133.931 17.4274 132.576 18.8474 128.767 18.8474H126.186V5.22842H129.606C132.834 5.22842 135.028 7.22931 135.028 12.0056C135.157 13.1674 135.028 14.2002 134.77 15.2329Z" fill="#1C1A1B"/>
</svg>
