<svg width="100" height="41" viewBox="0 0 100 41" fill="none" xmlns="http://www.w3.org/2000/svg">
<path d="M40.4667 0H0V40.6215H40.4648V0H40.4667Z" fill="#1C1A1B"/>
<path d="M26.96 3.09912V4.99346H31.0249V12.5297H33.3051V4.99346H37.37V3.09912H26.96Z" fill="white"/>
<path d="M12.3146 3.12451L9.34088 9.32665L6.36714 3.12451H3.11719V12.5002H5.39157V5.79069L8.2987 11.458H10.3733L13.2804 5.79069V12.5002H15.5548V3.12451H12.3048H12.3127H12.3146Z" fill="white"/>
<path d="M35.0858 34.3705C35.0447 34.7152 34.884 35.0385 34.6392 35.2853C34.3845 35.5204 34.0711 35.6791 33.7282 35.7476C33.2306 35.8436 32.7291 35.8906 32.2218 35.8867C31.6831 35.8945 31.1463 35.8201 30.633 35.6516C30.2099 35.5125 29.8514 35.2402 29.6046 34.87C29.3577 34.4997 29.2324 33.9669 29.2324 33.2911V32.3292C29.2324 31.6494 29.3577 31.1166 29.6046 30.7463C29.8514 30.3761 30.2099 30.1038 30.633 29.9647C31.1482 29.8001 31.6831 29.7218 32.2218 29.7296C32.7272 29.7218 33.2346 29.7668 33.7282 29.8687C34.0671 29.9353 34.3806 30.096 34.6392 30.331C34.886 30.5779 35.0447 30.8972 35.0858 31.2459H37.3661C37.3249 30.523 37.0526 29.8354 36.5844 29.2849C36.1241 28.7776 35.5305 28.4151 34.8742 28.2349C34.0084 28.0038 33.117 27.8999 32.2276 27.9156C31.1365 27.9156 30.1903 28.0743 29.4126 28.3858C28.6466 28.6835 28.0041 29.234 27.5927 29.9471C27.1911 30.6405 26.9815 31.5632 26.9658 32.6975V32.911C26.9776 34.0453 27.1911 34.9679 27.5927 35.6614C28.0021 36.3745 28.6466 36.9289 29.4126 37.2227C30.1903 37.5342 31.1365 37.6929 32.2276 37.6929C33.1229 37.7105 34.0142 37.6047 34.8742 37.3736C35.5344 37.1973 36.128 36.8329 36.5844 36.3236C37.0487 35.7731 37.3249 35.0855 37.3661 34.3626H35.0917L35.0878 34.3665L35.0858 34.3705Z" fill="white"/>
<path d="M59.3684 12.8627C61.0727 12.8627 62.3695 13.2701 63.257 14.0851C64.1463 14.9 64.591 16.0656 64.591 17.5779C64.591 18.7827 64.3226 19.7642 63.7859 20.5203C63.2491 21.2765 62.4597 21.8015 61.4175 22.0954L65.1415 28.0663H61.7035L58.1558 22.3598H52.9116V28.0663H49.8262V12.8607H59.3684V12.8627ZM61.4841 17.337C61.4841 16.6768 61.2921 16.1498 60.9121 15.762C60.5301 15.3721 59.8758 15.1782 58.9511 15.1782H52.9135V20.0267H58.9511C59.862 20.0267 60.5124 19.8327 60.9023 19.4429C61.2921 19.0531 61.486 18.5359 61.486 17.8894V17.339L61.4841 17.337Z" fill="#1C1A1B"/>
<path d="M80.6318 12.8628V15.2645H70.6704V19.1433H78.3398V21.4569H70.6704V25.6667H80.7199V28.0684H67.5869V12.8628H80.6318Z" fill="#1C1A1B"/>
<path d="M91.8721 12.8628C93.1357 12.8628 94.2523 12.998 95.222 13.2703C96.1917 13.5426 97.0027 13.9833 97.657 14.5926C98.3113 15.2018 98.803 15.9893 99.1341 16.9512C99.4651 17.9131 99.6297 19.0845 99.6297 20.4656C99.6297 21.8467 99.4651 22.9966 99.1341 23.9585C98.803 24.9203 98.3113 25.7078 97.657 26.3171C97.0027 26.9263 96.1917 27.371 95.222 27.6512C94.2523 27.9313 93.1357 28.0704 91.8721 28.0704H83.3662V12.8648H91.8721V12.8628ZM91.6958 25.555C92.4735 25.555 93.1611 25.4747 93.7567 25.3121C94.3522 25.1515 94.8556 24.8909 95.267 24.5305C95.6784 24.17 95.986 23.7077 96.1917 23.1416C96.3974 22.5754 96.4992 21.8898 96.4992 21.0807V19.7369C96.4992 18.1658 96.0878 17.0452 95.2651 16.3772C94.4423 15.7092 93.2512 15.3742 91.6958 15.3742H86.4516V25.555H91.6958Z" fill="#1C1A1B"/>
</svg>
