<svg width="98" height="27" viewBox="0 0 98 27" fill="none" xmlns="http://www.w3.org/2000/svg">
<path d="M41.1622 0.0654297H32.5381V26.8526H37.5035V16.8564H41.2276C46.977 16.8564 51.0278 14.1124 51.0278 8.42826V8.29758C51.0931 2.6788 47.173 0.0654297 41.1622 0.0654297ZM46.2584 8.49362C46.2584 11.4337 44.4943 13.067 41.2276 13.067H37.5688V3.92019H41.2276C44.429 3.92019 46.2584 5.16154 46.2584 8.36294V8.49362Z" fill="#1C1A1B"/>
<path d="M76.834 0.0654297H81.7994V12.1523L92.057 0.0654297H97.3491L86.3075 12.8057L98.0024 26.7873H92.1223L81.7994 14.3084V26.7873H76.834V0.0654297Z" fill="#1C1A1B"/>
<path d="M24.0432 0.0656738H0V24.1088L24.0432 0.0656738Z" fill="#1C1A1B"/>
<path d="M2.74512 26.7873H26.7883V2.74414L2.74512 26.7873Z" fill="#1C1A1B"/>
<path d="M64.0291 26.7872H54.4902V0H71.2812V3.85472H59.4557V10.4535H64.1598C70.0399 10.4535 73.6333 12.9363 73.6333 18.2937V18.6857C73.5679 23.9125 70.1705 26.7872 64.0291 26.7872ZM63.8331 22.9978C67.0998 22.9978 68.7985 21.4951 68.7985 18.751V18.6204C68.7985 15.8763 67.1652 14.3736 63.6371 14.3736H59.3903V22.9978H63.8331Z" fill="#1C1A1B"/>
</svg>
