<svg width="225" height="29" viewBox="0 0 225 29" fill="none" xmlns="http://www.w3.org/2000/svg">
<path d="M0.902344 0.892438C2.387 0.805105 4.91965 0.717773 7.40863 0.717773C13.3909 0.717773 15.6179 3.42509 15.6179 7.00573C15.6179 10.5864 13.6093 12.857 9.54828 13.512C14.2643 13.8613 17.2336 16.0883 17.2336 20.0183C17.2336 23.9483 13.6093 27.7036 6.97197 27.7036C0.33468 27.7036 2.518 27.6163 0.946011 27.5289V0.848772L0.902344 0.892438ZM4.13365 13.4247H6.5353C9.94128 13.4247 12.1683 11.7217 12.1683 7.61706C12.1683 3.51242 9.81028 1.28544 5.96764 1.28544C2.125 1.28544 4.78865 1.28544 4.13365 1.37277V13.4247ZM4.13365 27.0049C5.00698 27.0923 5.74931 27.1359 7.14663 27.1359C10.9456 27.1359 13.7403 25.2583 13.7403 20.5423C13.7403 15.8263 10.6399 14.036 6.49164 14.036H4.13365V27.0049Z" fill="#1C1A1B" stroke="#1C1A1B" stroke-width="0.703208"/>
<path d="M22.1677 27.5725V0.848686C23.6523 0.848686 27.102 0.761353 28.7613 0.761353C33.6083 0.761353 39.0229 2.37701 39.0229 8.27197C39.0229 14.1669 34.7436 16.5249 27.9316 16.5249C21.1197 16.5249 26.185 16.5249 25.3553 16.4376V27.5725H22.124H22.1677ZM25.4427 15.8262C26.185 15.9572 27.0147 16.0009 27.8007 16.0009C33.1279 16.0009 35.6169 13.0316 35.6169 8.53397C35.6169 4.03633 32.9096 1.37268 27.626 1.37268C22.3424 1.37268 26.2287 1.37268 25.399 1.46001V15.8699L25.4427 15.8262Z" fill="#1C1A1B" stroke="#1C1A1B" stroke-width="0.703208"/>
<path d="M58.5417 27.5726H43.8262V0.848755H58.5417V1.41642H47.1011V13.381H56.6641V13.9487H47.1011V27.0049H58.5417V27.5726Z" fill="#1C1A1B" stroke="#1C1A1B" stroke-width="0.703208"/>
<path d="M63.9131 27.5726H63.3018V0.543091H63.6074L75.572 14.691L86.2266 0.543091H86.5323V27.5726H83.301V5.47739L73.9564 17.835L63.9568 5.47739V27.5726H63.9131Z" fill="#1C1A1B" stroke="#1C1A1B" stroke-width="0.703208"/>
<path d="M105.57 27.5726V16.0447H101.16C98.9767 20.324 96.1384 24.9089 93.8241 27.5726H89.9814C92.8634 23.7736 95.6581 19.669 98.2344 15.5207C95.1778 14.6037 92.5578 12.333 92.5578 8.49038C92.5578 4.64774 96.0511 0.717773 102.47 0.717773C108.889 0.717773 107.361 0.805106 108.845 0.848772V27.5726H105.614H105.57ZM105.57 1.50377C104.522 1.37277 103.78 1.3291 102.688 1.3291C98.1907 1.3291 95.9201 4.21108 95.9201 8.62138C95.9201 13.0317 98.6274 15.477 102.776 15.477H105.57V1.50377Z" fill="#1C1A1B" stroke="#1C1A1B" stroke-width="0.703208"/>
<path d="M124.478 0.892438C125.962 0.805105 128.495 0.717773 130.984 0.717773C136.966 0.717773 139.193 3.42509 139.193 7.00573C139.193 10.5864 137.184 12.857 133.123 13.512C137.839 13.8613 140.809 16.0883 140.809 20.0183C140.809 23.9483 137.184 27.7036 130.547 27.7036C123.91 27.7036 126.093 27.6163 124.521 27.5289V0.848772L124.478 0.892438ZM127.709 13.4247H130.111C133.516 13.4247 135.743 11.7217 135.743 7.61706C135.743 3.51242 133.385 1.28544 129.543 1.28544C125.7 1.28544 128.364 1.28544 127.709 1.37277V13.4247ZM127.709 27.0049C128.582 27.0923 129.325 27.1359 130.722 27.1359C134.521 27.1359 137.315 25.2583 137.315 20.5423C137.315 15.8263 134.215 14.036 130.067 14.036H127.709V27.0049Z" fill="#1C1A1B" stroke="#1C1A1B" stroke-width="0.703208"/>
<path d="M145.743 27.7908V0.848616H148.974V23.4241L167.402 0.67395H167.882V27.6161H164.651V5.08425L146.223 27.8344H145.743V27.7908Z" fill="#1C1A1B" stroke="#1C1A1B" stroke-width="0.703208"/>
<path d="M193.079 13.7303H177.621V27.5726H174.39V0.848755H177.621V13.2063H193.079V0.848755H196.31V27.5726H193.079V13.7303Z" fill="#1C1A1B" stroke="#1C1A1B" stroke-width="0.703208"/>
<path d="M220.369 27.5725L216.308 18.2279H204.562L200.501 27.5725H199.759L211.636 0.455688H212.116L223.863 27.5725H220.369ZM204.824 17.6602H216.003L210.413 4.73499L204.78 17.6602H204.824Z" fill="#1C1A1B" stroke="#1C1A1B" stroke-width="0.703208"/>
</svg>
