<svg width="83" height="32" viewBox="0 0 83 32" fill="none" xmlns="http://www.w3.org/2000/svg">
<path d="M21.0254 12.6045L19.6064 16.7998H0L1.41797 12.6045H21.0254ZM21.7285 10.4932H2.12207L3.54004 6.29785H23.1465L21.7285 10.4932ZM23.8535 4.19531H4.24707L5.66504 0H25.2539L23.8535 4.19531Z" fill="#1C1A1B"/>
<path d="M36.6318 6.3075C37.8151 6.26123 38.999 6.37916 40.1543 6.65906C42.8672 7.43913 44.6289 9.44652 44.6289 12.6239C44.6748 14.1532 44.1367 15.6354 43.1406 16.7235C42.6185 17.3 41.9959 17.7598 41.3086 18.0751L41.2646 18.16C42.0655 18.482 42.8146 18.9385 43.4844 19.5116C44.8302 20.7217 45.5625 22.5514 45.457 24.4393C45.457 27.883 43.7657 30.3653 40.9824 31.1454C39.8738 31.4384 38.7318 31.5575 37.5918 31.4979H29.1709V6.3075H36.6318ZM63.126 10.5311H57.1631V31.4598L52.4854 31.4882V10.5594H45.748V6.30652H64.4648L63.126 10.5311ZM79.7549 10.5311H70.5586V16.1053H74.3115C77.3322 16.1054 78.9088 16.8852 80.001 17.8934C81.5705 19.398 82.4171 21.5953 82.2998 23.8583C82.4221 26.3022 81.3913 28.6473 79.5605 30.0897C78.1073 31.1836 76.5748 31.4881 73.4658 31.4882H65.917V6.30652H81.085L79.7549 10.5311ZM33.8047 27.3885H37.0283C37.9196 27.4997 38.8166 27.2336 39.5303 26.6464C40.1724 25.9783 40.5106 25.0391 40.4551 24.078C40.4768 23.2998 40.2628 22.535 39.8467 21.8993C39.1597 20.9481 38.3144 20.7675 36.8613 20.7675L33.8047 20.7294V27.3885ZM74.0488 20.2723H70.5615V27.2645H74.084C75.1036 27.3972 76.1176 26.9728 76.7881 26.1327C77.2727 25.4467 77.5166 24.597 77.4756 23.7352C77.5411 22.6258 77.0878 21.5548 76.2686 20.8817C75.6121 20.4175 74.8308 20.2027 74.0488 20.2723ZM36.2969 10.4266H33.8047V16.3719H36.4473C36.9875 16.4115 37.5302 16.367 38.0586 16.2391C39.1906 15.8486 39.9219 14.6634 39.8203 13.3846C39.9679 12.1087 39.2126 10.9139 38.0586 10.5975C37.4816 10.4526 36.8885 10.3953 36.2969 10.4266Z" fill="#1C1A1B"/>
</svg>
