<svg width="104" height="57" viewBox="0 0 104 57" fill="none" xmlns="http://www.w3.org/2000/svg">
<path d="M61.1536 0H13.3915C5.99558 0 0 5.99559 0 13.3915C0 20.7874 5.99558 26.783 13.3915 26.783H61.1536C68.5495 26.783 74.5451 20.7874 74.5451 13.3915C74.5451 5.99559 68.5495 0 61.1536 0Z" fill="#1C1A1B"/>
<path d="M13.0531 22.2057H10.7129V17.2677H11.4655C12.3108 16.9687 12.5788 15.7935 12.785 14.0822C13.0118 12.0616 13.1458 8.98947 13.1458 7.42249H21.8776V17.2677H23.6096V22.2057H21.2694L21.1766 19.3192H13.1561L13.0634 22.2057H13.0531ZM14.5273 17.278H19.1457V9.45338H15.5272C15.486 10.907 15.3726 12.8141 15.2283 14.278C15.0943 15.5976 14.8881 16.5563 14.5273 17.278Z" fill="white"/>
<path d="M24.918 13.5053V13.3197C24.918 9.63936 27.4437 7.18579 30.8251 7.18579C33.7838 7.18579 36.4435 8.93834 36.4435 13.1857V13.9795H27.7324C27.8251 16.2269 28.9591 17.5052 31.0106 17.5052C32.6704 17.5052 33.5364 16.8454 33.7426 15.6908H36.4023C36.0209 18.1959 33.99 19.5567 30.9488 19.5567C27.4437 19.5567 24.9283 17.2578 24.9283 13.5053H24.918ZM33.7116 12.1342C33.5776 10.093 32.5261 9.17545 30.8251 9.17545C29.1241 9.17545 28.0519 10.2888 27.7736 12.1342H33.7116Z" fill="white"/>
<path d="M39.1025 19.5048C38.4015 19.5048 38.1025 19.3502 38.1025 19.3502V17.0512C38.1025 17.0512 38.2881 17.144 38.6489 17.144C39.5561 17.144 39.8757 15.9379 40.0613 14.0925C40.2468 12.0926 40.3087 7.43286 40.3087 7.43286H48.9683V19.3192H46.2364V9.47406H42.7107C42.6695 11.0204 42.5973 13.0204 42.4633 14.5461C42.1437 17.7729 41.3293 19.5048 39.1025 19.5048Z" fill="white"/>
<path d="M51.6797 13.5053V13.3197C51.6797 9.63936 54.2982 7.18579 57.793 7.18579C61.2878 7.18579 63.8857 9.61874 63.8857 13.2578V13.4434C63.8857 17.1444 61.2671 19.5567 57.7724 19.5567C54.2776 19.5567 51.6797 17.1238 51.6797 13.5053ZM61.0713 13.4537V13.2991C61.0713 10.8455 59.8445 9.34039 57.793 9.34039C55.7415 9.34039 54.4941 10.8146 54.4941 13.2785V13.464C54.4941 15.897 55.7002 17.4227 57.793 17.4227C59.8857 17.4227 61.0713 15.897 61.0713 13.464V13.4537Z" fill="white"/>
<path d="M75.3708 30.1749H13.4853C6.08933 30.1749 0.09375 36.1705 0.09375 43.5664C0.09375 50.9624 6.08933 56.958 13.4853 56.958H75.3708C82.7667 56.958 88.7623 50.9624 88.7623 43.5664C88.7623 36.1705 82.7667 30.1749 75.3708 30.1749Z" fill="#1C1A1B"/>
<path d="M10.7012 37.8342H15.4949C18 37.8342 19.835 38.628 19.835 40.8136V40.8548C19.835 42.1022 19.1752 43.1331 17.7217 43.4733C19.3608 43.7929 20.3608 44.6073 20.3608 46.1537V46.2258C20.3608 48.5041 18.7732 49.7309 15.9279 49.7309H10.7012V37.8445V37.8342ZM13.4537 39.6796V42.7001H15.1135C16.433 42.7001 17.0206 42.2259 17.0206 41.1331V41.0919C17.0206 39.9991 16.3196 39.6796 15.0207 39.6796H13.4537ZM13.4537 44.5351V47.8753H15.4124C16.8248 47.8753 17.5464 47.4011 17.5464 46.2361V46.1949C17.5464 45.0609 16.8866 44.5351 15.5052 44.5351H13.464H13.4537Z" fill="white"/>
<path d="M37.6479 39.8754H34.0088V49.7206H31.2563V39.8754H27.6172V37.8342H37.6479V39.8754Z" fill="white"/>
<path d="M38.875 43.9061V43.7206C38.875 40.0402 41.4007 37.5867 44.7821 37.5867C47.7408 37.5867 50.4006 39.3392 50.4006 43.5866V44.3804H41.6894C41.7822 46.6277 42.9162 47.9061 44.9677 47.9061C46.6274 47.9061 47.4934 47.2463 47.6996 46.0917H50.3593C49.9779 48.5968 47.947 49.9576 44.9058 49.9576C41.4007 49.9576 38.8853 47.6587 38.8853 43.9061H38.875ZM47.679 42.535C47.545 40.4938 46.4934 39.5763 44.7924 39.5763C43.0914 39.5763 42.0193 40.6897 41.7409 42.535H47.679Z" fill="white"/>
<path d="M52.4014 42.7V41.8547C52.4014 36.6074 54.1024 32.6693 59.2878 32.4219L60.0198 32.4012C61.7208 32.3085 62.8342 32.2157 63.5455 31.9683V34.1332C62.8445 34.4321 61.9579 34.6074 59.9786 34.7208L59.3909 34.762C56.0508 34.9476 54.824 37.0403 54.525 40.3805H54.6384C55.4322 38.8341 56.8652 37.762 59.1126 37.762C62.4115 37.762 64.6176 40.2877 64.6176 43.7V43.834C64.6176 47.6278 61.9785 49.9473 58.5044 49.9473C54.8446 49.9473 52.4117 47.6999 52.4117 42.6897L52.4014 42.7ZM61.793 43.8546V43.7619C61.793 41.3495 60.7002 39.9166 58.6281 39.9166C56.5559 39.9166 55.2158 41.3702 55.2158 43.8237V43.9371C55.2158 46.2979 56.4219 47.803 58.5147 47.803C60.6074 47.803 61.793 46.3494 61.793 43.8443V43.8546Z" fill="white"/>
<path d="M66.5264 43.9061V43.7206C66.5264 40.0402 69.0521 37.5867 72.4335 37.5867C75.3922 37.5867 78.0519 39.3392 78.0519 43.5866V44.3804H69.3408C69.4335 46.6277 70.5675 47.9061 72.619 47.9061C74.2788 47.9061 75.1448 47.2463 75.351 46.0917H78.0107C77.6293 48.5968 75.5984 49.9576 72.5572 49.9576C69.0521 49.9576 66.5367 47.6587 66.5367 43.9061H66.5264ZM75.32 42.535C75.186 40.4938 74.1345 39.5763 72.4335 39.5763C70.7325 39.5763 69.6603 40.6897 69.382 42.535H75.32Z" fill="white"/>
<path d="M90.412 1.32987C97.0614 1.32987 102.474 6.74215 102.474 13.3915C102.474 20.0409 97.0614 25.4532 90.412 25.4532C83.7627 25.4532 78.3504 20.0409 78.3504 13.3915C78.3504 6.74215 83.7627 1.32987 90.412 1.32987ZM90.412 0C83.0204 0 77.0205 5.99989 77.0205 13.3915C77.0205 20.7831 83.0204 26.783 90.412 26.783C97.8036 26.783 103.804 20.7831 103.804 13.3915C103.804 5.99989 97.814 0 90.412 0Z" fill="#1C1A1B"/>
<path d="M96.3476 18.6699H95.028V8.78349H85.1416V7.45361H96.3476V18.6699Z" fill="#1C1A1B"/>
<path d="M95.2229 7.64917L84.6748 18.1973L85.6152 19.1376L96.1633 8.58953L95.2229 7.64917Z" fill="#1C1A1B"/>
</svg>
