<svg width="122" height="41" viewBox="0 0 122 41" fill="none" xmlns="http://www.w3.org/2000/svg">
<path d="M6.22954 9.46868V4.90906H1.66992V23.1087H6.22954V14.0089H3.95943V9.44927H6.22954V9.46868Z" fill="#1C1A1B"/>
<path d="M49.6322 3.41486C49.0113 2.36712 48.1964 1.55221 47.1486 0.931323C46.1009 0.31044 44.9755 0 43.7144 0C42.4532 0 41.3278 0.31044 40.2801 0.931323C39.2323 1.55221 38.4174 2.36712 37.7966 3.41486C37.1757 4.4432 36.8846 5.58796 36.8846 6.84913H39.0771V5.56855H41.8323C41.9099 5.45213 42.0069 5.33572 42.1233 5.23871C42.5696 4.81185 43.1129 4.57902 43.7338 4.57902C44.374 4.57902 44.9173 4.79245 45.3636 5.23871C45.7904 5.66557 46.0233 6.20884 46.0233 6.86853H50.5829C50.5441 5.60736 50.2336 4.4626 49.6322 3.41486ZM48.1964 17.9086V16.6086H46.0039C46.0039 17.2295 45.7904 17.7728 45.3442 18.2191C44.9173 18.6653 44.374 18.8788 43.7144 18.8788C43.0935 18.8788 42.5502 18.6653 42.1039 18.2191C41.6577 17.7728 41.4248 17.2295 41.4248 16.6086H36.8652C36.8652 17.8504 37.1757 18.9952 37.7771 20.0429C38.398 21.0907 39.213 21.9056 40.2607 22.5264C41.289 23.1473 42.4338 23.4384 43.6949 23.4384C44.9561 23.4384 46.0815 23.1279 47.1292 22.5264C48.1576 21.9056 48.9919 21.0907 49.6127 20.0429C50.0008 19.3638 50.2724 18.6653 50.4083 17.9086H48.1964Z" fill="#1C1A1B"/>
<path d="M54.5605 0.368774H59.1202V23.128H54.5605V0.368774Z" fill="#1C1A1B"/>
<path d="M13.1162 0.368774V4.90899H6.22824V2.63888H1.68802V4.90899H0V0.368774H13.1162Z" fill="#1C1A1B"/>
<path d="M14.7851 9.46851H6.22852V14.0281H14.7851V9.46851Z" fill="#1C1A1B"/>
<path d="M29.1236 14.0087V16.2982H22.5655V23.1085H18.0059V14.0087L21.3043 3.20142L20.7998 4.90884H25.34L23.2446 11.7386H28.4251L29.1236 14.0087Z" fill="#1C1A1B"/>
<path d="M32.9845 11.7387L29.5308 0.368774H22.1578L21.3623 3.00753H25.9219L25.3398 4.92839H26.3488L28.4249 11.7581H30.9472L31.6069 14.0282V16.2983H29.1234V23.128H33.683V14.0282L32.9845 11.7387Z" fill="#1C1A1B"/>
<path d="M34.8082 14.0088V16.2983H33.6829V14.0088L32.9844 11.7386H34.1291L34.8082 14.0088Z" fill="#1C1A1B"/>
<path d="M47.499 14.843C47.0333 14.3967 46.393 14.1251 45.5781 14.0087C43.6185 13.7176 42.0468 12.9609 40.8633 11.7192C39.6797 10.4774 39.0977 8.86699 39.0977 6.84912H43.6573C43.6573 7.58642 43.8901 8.16849 44.3364 8.61476C44.802 9.06102 45.4423 9.33265 46.2572 9.44907C48.2169 9.7401 49.7885 10.4968 50.9721 11.7386C52.1556 12.9803 52.7377 14.5908 52.7377 16.6086H48.1781C48.1975 15.8907 47.9647 15.2893 47.499 14.843Z" fill="#1C1A1B"/>
<path d="M43.6368 5.56873V6.84931H41.4443C41.4443 6.36424 41.5802 5.93738 41.8324 5.56873H43.6368Z" fill="#1C1A1B"/>
<path d="M52.7367 16.6282V17.9282H50.4277C50.5053 17.5013 50.5442 17.0744 50.5442 16.6282H52.7367Z" fill="#1C1A1B"/>
<path d="M68.2207 1.64941H63.6611V9.44926H68.2207V1.64941Z" fill="#1C1A1B"/>
<path d="M69.0158 9.46851V23.1085H64.4756V14.0087H59.916V9.46851H63.6607V11.7386H68.2203V9.46851H69.0158Z" fill="#1C1A1B"/>
<path d="M80.5411 4.90894H75.9814V18.5684H80.5411V4.90894Z" fill="#1C1A1B"/>
<path d="M72.2363 0.368774V4.92839H75.981V2.65828H80.5406V4.92839H84.2854V0.368774H72.2363ZM80.5406 18.5684V20.8385H75.981V18.5684H72.2363V23.128H84.2854V18.5684H80.5406Z" fill="#1C1A1B"/>
<path d="M101.418 6.84912H96.8584V16.628H101.418V6.84912Z" fill="#1C1A1B"/>
<path d="M90.5518 16.6282H87.7578C87.7578 17.0745 87.7966 17.5013 87.8743 17.9282H85.9922V5.56873H87.8743C87.7966 5.99558 87.7578 6.42245 87.7578 6.84931H90.5518V16.6282Z" fill="#1C1A1B"/>
<path d="M101.399 6.20897C101.322 5.20003 101.011 4.2881 100.507 3.43439C99.8859 2.38665 99.071 1.57174 98.0233 0.950855C96.9755 0.329971 95.8502 0.0195312 94.589 0.0195312C93.3473 0.0195312 92.2025 0.329971 91.1548 0.950855C90.107 1.57174 89.2921 2.38665 88.6712 3.43439C88.2832 4.11348 88.0116 4.81197 87.8757 5.56868H90.5533V6.84926H92.3189C92.3189 6.20897 92.5517 5.66569 92.998 5.21943C93.4443 4.79257 93.9875 4.55974 94.6084 4.55974C95.2487 4.55974 95.792 4.77317 96.2383 5.21943C96.6651 5.64629 96.898 6.18957 96.898 6.84926H101.458C101.419 6.63583 101.419 6.4224 101.399 6.20897ZM96.8591 16.6282C96.8591 17.2491 96.6457 17.7923 96.1994 18.2386C95.7726 18.6848 95.2293 18.8983 94.5696 18.8983C93.9488 18.8983 93.4055 18.6848 92.9592 18.2386C92.5129 17.7923 92.2801 17.2491 92.2801 16.6282H90.5145V17.9282H87.8369C87.9727 18.6849 88.2444 19.4028 88.6324 20.0624C89.2533 21.1102 90.0682 21.9251 91.116 22.546C92.1443 23.1669 93.289 23.4579 94.5502 23.4579C95.792 23.4579 96.9368 23.1475 97.9845 22.546C99.0128 21.9251 99.8471 21.1102 100.468 20.0624C101.089 19.0341 101.38 17.8893 101.38 16.6282H96.8591Z" fill="#1C1A1B"/>
<path d="M121.693 17.9088V23.1087H116.338L110.362 8.32385H114.262L117.056 15.1536H117.153V17.9088H121.693Z" fill="#1C1A1B"/>
<path d="M109.277 8.32385V4.90899H105.707V0.368774H111.062L114.264 8.32385H109.277Z" fill="#1C1A1B"/>
<path d="M105.705 8.3238V4.90894H104.735V23.1086H109.295V8.3238H105.705Z" fill="#1C1A1B"/>
<path d="M121.713 0.368774H117.153V15.1536H121.713V0.368774Z" fill="#1C1A1B"/>
<path d="M6.24809 2.63892H1.68848V4.90902H6.24809V2.63892Z" fill="#1C1A1B"/>
<path d="M6.22909 9.46851H3.95898V14.0281H6.22909V9.46851Z" fill="#1C1A1B"/>
<path d="M33.6829 14.0088V16.2983H29.1233V14.0088L28.4248 11.7386H32.9844L33.6829 14.0088Z" fill="#1C1A1B"/>
<path d="M25.9221 2.98816L25.34 4.90902H20.7998L21.3043 3.20159L21.3819 2.98816H25.9221Z" fill="#1C1A1B"/>
<path d="M41.8313 5.56873C41.5791 5.93738 41.4433 6.36424 41.4433 6.84931H39.0762V5.56873H41.8313Z" fill="#1C1A1B"/>
<path d="M50.543 16.6282C50.543 17.0744 50.5042 17.5013 50.4266 17.9282H48.1953V16.6282H50.543Z" fill="#1C1A1B"/>
<path d="M68.2207 9.46851H63.6611V11.7386H68.2207V9.46851Z" fill="#1C1A1B"/>
<path d="M80.5411 18.5684H75.9814V20.8385H80.5411V18.5684Z" fill="#1C1A1B"/>
<path d="M80.5411 2.63892H75.9814V4.90902H80.5411V2.63892Z" fill="#1C1A1B"/>
<path d="M90.5528 16.6282V17.9282H87.8752C87.7976 17.5013 87.7588 17.0744 87.7588 16.6282H90.5528Z" fill="#1C1A1B"/>
<path d="M90.5528 5.56873V6.84931H87.7588C87.7588 6.40305 87.7976 5.97618 87.8752 5.56873H90.5528Z" fill="#1C1A1B"/>
<path d="M109.297 4.90894H105.707V8.3238H109.297V4.90894Z" fill="#1C1A1B"/>
<path d="M121.713 15.1536H117.153V17.9087H121.713V15.1536Z" fill="#1C1A1B"/>
<path d="M93.1436 35.1279H94.6355C95.8765 35.1279 96.5318 34.598 96.5318 33.5383V33.4825C96.5318 32.3392 95.8207 31.9488 94.6355 31.9488H93.1436V35.1279ZM91.2891 40.4822V30.5126H94.6355C96.8246 30.5126 98.3584 31.405 98.3584 33.4407V33.4965C98.3584 35.0582 97.3824 35.8529 96.1414 36.1736L98.944 40.4822H96.9362L94.3287 36.4525H93.1436V40.4822H91.2891Z" fill="#1C1A1B"/>
<path d="M83.1465 40.4822V30.5126H89.3792V31.9766H85.001V34.7096H88.5147V36.1039H85.001V39.0181H89.6163V40.4822H83.1465Z" fill="#1C1A1B"/>
<path d="M74.1592 40.4822V30.5126H77.7287C79.7784 30.5126 80.9915 31.2934 80.9915 33.1061V33.1618C80.9915 34.1518 80.5453 34.9327 79.4159 35.2812C80.7684 35.5741 81.4098 36.3131 81.4098 37.6377V37.6935C81.4098 39.548 80.1828 40.4822 77.9936 40.4822H74.1592ZM75.9718 34.7096H77.5056C78.7326 34.7096 79.2067 34.2634 79.2067 33.2455V33.1897C79.2067 32.2416 78.6629 31.8372 77.4777 31.8372H75.9718V34.7096ZM75.9718 39.1575H77.7705C79.0115 39.1575 79.5832 38.5998 79.5832 37.568V37.5122C79.5832 36.4804 79.0115 35.9645 77.6451 35.9645H75.9718V39.1575Z" fill="#1C1A1B"/>
<path d="M61.7539 40.4822V30.5126H64.2358L66.8572 37.317L69.4228 30.5126H71.8769V40.4822H70.0224V32.9527L67.0524 40.4822H66.4529L63.4271 32.9527V40.4822H61.7539Z" fill="#1C1A1B"/>
<path d="M53.6123 40.4822V30.5126H59.845V31.9766H55.4668V34.7096H58.9806V36.1039H55.4668V39.0181H60.0821V40.4822H53.6123Z" fill="#1C1A1B"/>
<path d="M46.6309 40.4822L43.2705 30.5126H45.2087L47.8021 38.5998L50.4096 30.5126H52.1525L48.7782 40.4822H46.6309Z" fill="#1C1A1B"/>
<path d="M37.7038 40.6215C34.6502 40.6215 32.6562 38.4324 32.6562 35.56V35.4485C32.6562 32.5343 34.7478 30.373 37.7038 30.373C40.6738 30.373 42.7235 32.4785 42.7235 35.4067V35.5182C42.7235 38.4324 40.7295 40.6215 37.7038 40.6215ZM37.7317 39.1296C39.6141 39.1296 40.7993 37.6934 40.7993 35.5321V35.4206C40.7993 33.3709 39.6559 31.8511 37.7038 31.8511C35.7517 31.8511 34.5944 33.2872 34.5944 35.4345V35.5461C34.5944 37.7213 35.919 39.1296 37.7317 39.1296Z" fill="#1C1A1B"/>
<path d="M22.7695 40.4823V30.5127H24.9865L29.1835 37.7215V30.5127H30.8707V40.4823H28.9465L24.4567 32.8413V40.4823H22.7695Z" fill="#1C1A1B"/>
</svg>
