<svg width="233" height="234" viewBox="0 0 233 234" fill="none" xmlns="http://www.w3.org/2000/svg">
<path d="M19.7438 109.027L19.6839 107.827L30.2715 107.298L30.3599 109.069L21.5087 113.161L30.7185 116.252L30.8089 118.063L20.2213 118.591L20.1613 117.391L29.1353 116.943L19.9825 113.809L19.9216 112.589L28.5603 108.587L19.7438 109.027ZM25.8144 120.731C22.8141 121.302 21.7667 122.966 22.1496 124.979C22.529 126.973 24.1214 128.174 27.1218 127.603C30.1221 127.032 31.1622 125.33 30.7829 123.336C30.3999 121.323 28.8148 120.161 25.8144 120.731ZM25.5714 119.454C29.3653 118.732 31.4148 120.649 31.8862 123.126C32.3613 125.623 31.1588 128.159 27.3648 128.881C23.5708 129.602 21.5214 127.686 21.0463 125.189C20.5749 122.711 21.7774 120.176 25.5714 119.454ZM23.7672 135.761C22.9592 133.206 24.0944 130.718 27.5513 129.625L28.9979 129.167C32.6297 128.039 35.2446 128.597 36.8202 131.488L38.8016 135.139L37.7683 135.466L35.8948 132.091C34.731 129.979 32.9229 129.228 30.1196 129.97C31.8513 130.022 33.1216 131.294 33.6088 132.834C34.3217 135.089 33.3437 137.485 30.1123 138.507C26.881 139.529 24.5277 138.165 23.7672 135.761ZM24.8381 135.422C25.4322 137.301 27.2215 138.058 29.6826 137.279C32.2001 136.483 33.0617 134.764 32.5151 133.036C31.9685 131.307 30.2858 130.103 27.6932 130.923C25.2885 131.684 24.2202 133.468 24.8381 135.422ZM26.6574 142.884L26.1475 141.773L35.7807 137.349L36.2906 138.459L28.3585 142.102L38.8403 144.009L39.3502 145.12L29.717 149.544L29.2071 148.434L37.1751 144.774L26.6574 142.884ZM30.5872 151.224L30.4299 150.974L31.3308 150.407L31.4147 150.541C32.0229 151.508 33.673 151.542 38.0113 149.187L40.8625 147.651L44.3335 153.172L35.3585 158.814L34.7084 157.78L42.7825 152.704L40.5803 149.201L38.5947 150.263C34.2083 152.578 31.8351 153.209 30.5872 151.224ZM37.7798 162.061L37.0165 161.107L45.2937 154.484L46.0569 155.438L42.4415 158.331L43.3278 159.439L49.2454 159.423L50.1441 160.546L43.6819 160.543L42.0517 167.4L41.1161 166.231L42.5832 160.211L41.6107 158.996L37.7798 162.061ZM45.2082 166.749C44.4136 167.543 44.622 168.755 45.6247 169.759C47.0173 171.153 48.9956 171.683 51.1144 169.566L51.4768 169.204C48.1063 166.499 46.3651 165.593 45.2082 166.749ZM47.6992 173.006L48.8004 171.822C47.5185 172.128 46.0557 171.723 44.6631 170.329C43.2565 168.922 42.9927 167.04 44.2333 165.801C45.9479 164.088 48.2184 165.162 52.2017 168.396L52.4666 168.132C54.1811 166.419 53.5269 165.039 52.4546 163.966C51.1734 162.683 49.7244 162.627 48.665 163.546L47.7598 162.64C49.4603 161.359 51.5919 161.569 53.277 163.256C55.0178 164.998 55.4488 166.879 53.2185 169.107C52.173 170.152 51.49 170.806 50.8906 171.405C50.0403 172.255 49.3572 173.021 48.5765 173.884L47.6992 173.006ZM57.3278 180.742L53.6322 178.085L59.8208 169.478L63.2284 171.928C64.8762 173.113 65.9619 174.573 64.7311 176.285C64.0409 177.245 63.1533 177.602 62.0524 177.344C62.7917 178.24 63.07 179.338 62.2073 180.538C60.9535 182.281 59.0555 181.985 57.3278 180.742ZM57.4768 174.831L55.2452 177.934L57.8369 179.798C59.3087 180.856 60.4633 180.837 61.1994 179.813C61.9931 178.709 61.5403 177.752 60.0045 176.648L57.4768 174.831ZM60.1915 171.055L58.0865 173.983L60.5502 175.754C61.782 176.64 62.8145 176.824 63.6542 175.656C64.4019 174.616 63.839 173.678 62.5752 172.769L60.1915 171.055ZM69.1313 181.82C67.7565 184.657 68.8378 186.582 70.2741 187.278C72.0473 188.138 74.0023 187.311 75.2311 184.776C76.4598 182.24 75.8969 180.194 74.1237 179.334C72.6874 178.638 70.5062 178.983 69.1313 181.82ZM76.4191 185.351C74.881 188.525 72.2222 189.448 70.0234 188.383C68.6049 187.695 67.8057 186.498 67.6727 185.01L65.4042 189.692L64.3048 189.159L70.4315 176.516L71.5309 177.049L70.7403 178.68C71.9818 177.88 73.4169 177.766 74.8354 178.453C77.0342 179.519 77.9572 182.177 76.4191 185.351ZM77.1488 188.339C76.7848 189.402 77.5055 190.398 78.8476 190.858C80.7116 191.497 82.7214 191.102 83.6922 188.269L83.8583 187.784C79.6414 186.839 77.679 186.792 77.1488 188.339ZM82.1397 192.861L82.6075 191.313C81.591 192.152 80.0994 192.433 78.2354 191.794C76.3527 191.149 75.2878 189.576 75.8563 187.917C76.6419 185.624 79.1533 185.589 84.1536 186.74L84.275 186.386C85.0606 184.093 83.8659 183.142 82.4306 182.65C80.7157 182.063 79.3897 182.65 78.8431 183.942L77.6314 183.526C78.5944 181.628 80.6009 180.878 82.8564 181.651C85.1864 182.449 86.4015 183.949 85.3796 186.931C84.9006 188.329 84.5753 189.217 84.3007 190.019C83.9111 191.156 83.6349 192.144 83.314 193.263L82.1397 192.861ZM88.8878 194.843C86.6374 194.343 85.054 192.84 85.2126 190.675L86.4051 190.94C86.4497 192.464 87.3108 193.403 89.1573 193.813C90.946 194.211 92.2306 193.609 92.5001 192.397C92.7868 191.108 92.1778 190.307 90.4083 189.913L88.3695 189.46L88.5962 188.44L90.5581 188.877C92.0199 189.202 92.9176 188.796 93.1914 187.565C93.478 186.276 92.5571 185.425 91.0953 185.1C89.7681 184.805 88.1801 185.138 87.5878 186.621L86.3953 186.356C87.1651 184.347 89.2105 183.591 91.2878 184.053C93.5767 184.562 94.8138 185.988 94.4203 187.757C94.1807 188.835 93.5095 189.493 92.3874 189.728C93.411 190.298 94.0199 191.282 93.7162 192.647C93.2627 194.686 91.2343 195.365 88.8878 194.843ZM96.6702 190.619C96.3644 193.757 98.0463 195.188 99.6348 195.343C101.596 195.534 103.143 194.081 103.416 191.277C103.69 188.472 102.452 186.748 100.491 186.557C98.9027 186.402 96.9761 187.481 96.6702 190.619ZM104.73 191.405C104.388 194.915 102.214 196.703 99.7827 196.466C98.2138 196.313 97.049 195.467 96.4084 194.118L95.9038 199.295L94.6879 199.177L96.0508 185.194L97.2667 185.312L97.0909 187.116C97.978 185.936 99.2843 185.331 100.853 185.484C103.285 185.721 105.073 187.894 104.73 191.405ZM106.469 193.967C106.489 195.09 107.506 195.781 108.925 195.756C110.895 195.721 112.65 194.665 112.596 191.67L112.587 191.158C108.301 191.707 106.44 192.332 106.469 193.967ZM112.703 196.516L112.615 194.902C111.945 196.037 110.638 196.809 108.668 196.844C106.679 196.88 105.141 195.764 105.11 194.011C105.067 191.587 107.416 190.698 112.509 190.075L112.502 189.701C112.459 187.278 111.012 186.791 109.495 186.818C107.682 186.851 106.636 187.855 106.562 189.255L105.282 189.278C105.54 187.165 107.17 185.776 109.554 185.733C112.017 185.689 113.67 186.685 113.727 189.837C113.753 191.314 113.75 192.26 113.765 193.108C113.787 194.309 113.864 195.333 113.944 196.494L112.703 196.516ZM120.307 195.918C117.653 196.292 115.388 194.76 114.883 191.169L114.672 189.667C114.162 185.898 115.145 183.412 118.257 182.338L122.186 180.989L122.337 182.062L118.698 183.35C116.422 184.148 115.382 185.806 115.649 188.694C115.987 186.995 117.452 185.953 119.052 185.728C121.394 185.398 123.595 186.76 124.067 190.116C124.539 193.472 122.804 195.567 120.307 195.918ZM120.15 194.806C122.102 194.532 123.144 192.892 122.785 190.336C122.417 187.722 120.865 186.587 119.069 186.84C117.274 187.092 115.808 188.552 116.187 191.245C116.538 193.742 118.121 195.091 120.15 194.806ZM125.783 189.385C126.555 192.34 128.285 193.273 130.268 192.756C132.231 192.243 133.323 190.574 132.552 187.618C131.781 184.663 130.012 183.74 128.049 184.252C126.066 184.77 125.012 186.429 125.783 189.385ZM124.525 189.713C123.55 185.976 125.325 183.802 127.765 183.166C130.225 182.524 132.835 183.553 133.81 187.29C134.785 191.027 133.011 193.201 130.551 193.842C128.111 194.479 125.5 193.45 124.525 189.713ZM140.08 190.474L138.94 190.912L135.519 182.01L131.933 183.388L131.551 182.395L139.865 179.201L140.246 180.194L136.66 181.572L140.08 190.474ZM146.104 187.835L145.016 188.393L140.179 178.96L141.266 178.402L143.379 182.523L144.642 181.875L145.808 176.074L147.088 175.417L145.795 181.749L152.188 184.715L150.855 185.399L145.25 182.759L143.865 183.47L146.104 187.835ZM156.774 181.936C154.197 183.648 151.373 182.851 149.552 180.11C147.666 177.271 148.272 174.337 150.635 172.767C153.113 171.12 156.101 172.163 157.801 175.008L150.777 179.675C152.255 181.792 154.413 182.156 156.218 180.957C157.597 180.041 158.107 178.708 157.634 177.248L158.701 176.539C159.479 178.672 158.727 180.638 156.774 181.936ZM151.229 173.697C149.588 174.787 149.093 176.606 150.188 178.717L156.064 174.814C155.072 173.32 153.002 172.519 151.229 173.697ZM164.914 175.59L163.982 176.41L158.831 161.919L159.778 161.087L164.914 175.59ZM168.453 172.379L167.573 173.254L161.536 159.11L162.43 158.221L168.453 172.379Z" fill="black" fill-opacity="0.37"/>
<path d="M169.845 154.358C171.291 152.414 173.772 151.951 175.62 152.933L174.397 154.577C173.303 154.033 171.993 154.409 171.193 155.484C170.311 156.67 170.432 158.454 172.503 159.995C174.605 161.559 176.366 161.174 177.248 159.989C178.036 158.929 178.078 157.585 177.242 156.596L178.477 154.936C180.005 156.612 180.031 159.186 178.631 161.067C176.796 163.533 173.79 163.679 171.213 161.762C168.7 159.892 167.975 156.872 169.845 154.358ZM178.571 139.934L187.882 145.002L186.94 146.733L179.516 142.692L185.358 149.64L184.623 150.99L175.685 149.895L183.041 153.898L182.099 155.629L172.788 150.561L174.248 147.878L182.63 148.964L177.111 142.617L178.571 139.934ZM184.427 139.597C186.869 140.493 188.474 139.55 189.004 138.107C189.547 136.627 188.908 134.881 186.484 133.992C184.024 133.089 182.426 134.013 181.882 135.493C181.353 136.936 181.911 138.673 184.427 139.597ZM180.255 134.896C181.124 132.528 183.624 130.633 187.231 131.957C190.82 133.274 191.501 136.337 190.632 138.705C189.769 141.054 187.269 142.948 183.68 141.631C180.073 140.307 179.392 137.245 180.255 134.896ZM185.677 122.306L184.809 125.927L193.527 128.017L193.05 130.01L184.331 127.92L183.459 131.561L181.868 131.18L184.086 121.925L185.677 122.306ZM183.997 121.916L184.232 119.88L185.779 120.059C184.757 119.286 184.236 118.135 184.417 116.569C184.699 114.122 186.977 112.263 190.422 112.661C193.867 113.059 195.68 115.391 195.397 117.838C195.217 119.404 194.446 120.406 193.275 120.925L198.188 121.493L197.953 123.529L183.997 121.916ZM189.508 120.569C192.112 120.87 193.459 119.677 193.64 118.111C193.837 116.408 192.539 115.108 190.171 114.834C187.802 114.56 186.262 115.533 186.065 117.236C185.884 118.802 186.905 120.268 189.508 120.569ZM195.641 109.528L195.673 111.538L185.074 111.707L185.042 109.698L192.706 109.575L184.959 104.516L184.926 102.507L195.526 102.337L195.558 104.346L187.914 104.469L195.641 109.528ZM183.353 93.44C182.889 91.0611 184.218 88.9152 186.188 88.2099L186.58 90.2213C185.442 90.664 184.837 91.886 185.093 93.2012C185.376 94.6517 186.777 95.7638 189.311 95.2699C191.883 94.7686 192.783 93.2079 192.501 91.7574C192.248 90.4616 191.283 89.5256 189.988 89.4767L189.592 87.446C191.861 87.4455 193.781 89.1591 194.229 91.4606C194.817 94.4777 192.901 96.7985 189.748 97.4129C186.673 98.0123 183.952 96.5151 183.353 93.44ZM188.981 74.7529L185.843 79.7208L186.274 80.8846L190.653 79.2606L191.365 81.1819L181.426 84.8686L180.713 82.9472L184.741 81.4534L184.289 80.2341L179.137 78.6982L178.308 76.4628L184.447 78.452L188.124 72.4436L188.981 74.7529ZM182.341 72.8934C184.645 71.6867 185.025 69.864 184.312 68.5025C183.581 67.1061 181.858 66.4069 179.571 67.6045C177.249 68.8204 176.86 70.6256 177.592 72.022C178.305 73.3835 179.967 74.1367 182.341 72.8934ZM176.056 72.8265C174.885 70.5923 175.162 67.4671 178.565 65.6844C181.952 63.9109 184.678 65.4637 185.848 67.698C187.009 69.9148 186.733 73.04 183.347 74.8135C179.943 76.5961 177.217 75.0433 176.056 72.8265ZM166.554 58.2328L175.14 52.0144L176.295 53.6103L169.449 58.5688L178.237 56.2912L179.139 57.5359L174.298 65.1292L181.081 60.2169L182.236 61.8127L173.651 68.0311L171.859 65.5576L176.451 58.4607L168.346 60.7063L166.554 58.2328ZM159.513 51.0487L167.056 43.5999L168.496 45.058L162.117 51.3576L165.661 54.9467L172.04 48.6471L173.48 50.1052L165.937 57.554L159.513 51.0487ZM157.369 41.2329L156.893 41.8361C159.671 43.627 161.325 44.3299 162.167 43.2626C162.765 42.5047 162.556 41.5613 161.566 40.7801C160.251 39.7426 158.675 39.5778 157.369 41.2329ZM162.898 39.8234C164.584 41.1539 165.136 43.0951 163.94 44.611C162.341 46.6373 159.504 45.3022 156.03 43.0882L155.896 43.2584C154.736 44.7278 155.119 45.8331 156.14 46.6387C157.254 47.5176 158.327 47.4611 159.207 46.4736L160.831 47.7552C159.304 49.4364 157.004 49.3287 155.102 47.8274C152.951 46.1307 152.547 44.1301 154.528 41.6519C154.687 41.4508 155.853 40.0367 156.133 39.6809C157.122 38.428 157.838 37.3615 158.269 36.497L159.816 37.7176C159.622 38.0912 159.47 38.3477 159.089 38.9257C160.255 38.4655 161.537 38.7493 162.898 39.8234Z" fill="black"/>
</svg>
