<svg width="96" height="41" viewBox="0 0 96 41" fill="none" xmlns="http://www.w3.org/2000/svg">
<path d="M5.91309 37.5971V29.4988H8.05736V32.621H9.29194L11.2738 29.4988H13.7104L11.1763 33.304L13.7429 37.5971H11.2738L9.45438 34.5074H8.08985V37.5971H5.91309Z" fill="#1C1A1B"/>
<path d="M18.0321 37.6944C17.2199 37.6944 16.5051 37.5318 15.8878 37.2066C15.2705 36.8813 14.7832 36.3935 14.4583 35.7755C14.1334 35.1576 13.9385 34.4096 13.9385 33.564C13.9385 32.6858 14.1009 31.9378 14.4583 31.3199C14.8157 30.6694 15.2705 30.2141 15.8878 29.8563C16.5051 29.5311 17.2199 29.3359 17.9996 29.3359C18.8118 29.3359 19.5266 29.5311 20.1439 29.8563C20.7612 30.2141 21.216 30.6694 21.5409 31.3199C21.8658 31.9378 22.0607 32.6858 22.0607 33.564C22.0607 34.4096 21.8983 35.1576 21.5734 35.7755C21.2485 36.3935 20.7612 36.8813 20.1764 37.2066C19.5591 37.5318 18.8443 37.6944 18.0321 37.6944ZM17.9996 35.743C18.4869 35.743 18.8443 35.6455 19.1367 35.4503C19.3966 35.2552 19.624 34.995 19.754 34.6372C19.884 34.312 19.9489 33.9542 19.9489 33.5965C19.9489 33.2387 19.884 32.881 19.754 32.5232C19.624 32.1655 19.4291 31.9053 19.1367 31.6776C18.8768 31.45 18.4869 31.3524 17.9996 31.3524C17.5448 31.3524 17.1874 31.45 16.895 31.6776C16.6026 31.9053 16.4076 32.1655 16.2777 32.5232C16.1477 32.8485 16.0827 33.2062 16.0827 33.5965C16.0827 33.9542 16.1477 34.312 16.2777 34.6372C16.4076 34.9625 16.6026 35.2227 16.895 35.4503C17.1549 35.6129 17.5448 35.743 17.9996 35.743Z" fill="#1C1A1B"/>
<path d="M23.3604 40.6215V29.4985H25.3747L25.4721 30.5392C25.797 30.1164 26.1869 29.7912 26.6417 29.6286C27.0966 29.466 27.5514 29.3684 28.0712 29.3684C28.851 29.3684 29.4683 29.5635 29.9881 29.9213C30.5079 30.2791 30.8978 30.7994 31.1577 31.4174C31.4176 32.0678 31.5476 32.7508 31.5476 33.5314C31.5476 34.3119 31.4176 35.0275 31.1577 35.6454C30.8978 36.2959 30.4754 36.7512 29.9556 37.1089C29.4033 37.4667 28.721 37.6618 27.9088 37.6618C27.5514 37.6618 27.194 37.6293 26.9016 37.5317C26.6092 37.4342 26.3493 37.3366 26.1219 37.2065C25.8945 37.0764 25.6996 36.9138 25.5371 36.7512V40.5889L23.3604 40.6215ZM27.5189 35.743C28.0063 35.743 28.3636 35.6454 28.656 35.4177C28.916 35.1901 29.1109 34.9299 29.2409 34.6047C29.3383 34.2794 29.4033 33.9217 29.4033 33.5639C29.4033 33.1736 29.3383 32.8159 29.2084 32.4581C29.0784 32.1004 28.8835 31.8402 28.5911 31.6125C28.3312 31.4174 27.9413 31.2873 27.454 31.2873C27.0316 31.2873 26.6417 31.3848 26.3493 31.6125C26.0569 31.8077 25.8295 32.1004 25.6671 32.4256C25.5046 32.7508 25.4396 33.1411 25.4396 33.5314C25.4396 33.9217 25.5046 34.2794 25.6671 34.6372C25.8295 34.9624 26.0244 35.2551 26.3493 35.4503C26.7067 35.6454 27.0641 35.743 27.5189 35.743Z" fill="#1C1A1B"/>
<path d="M32.8477 37.5971V29.4988H40.1902V37.5971H38.0459V31.4177H35.0244V37.5971H32.8477Z" fill="#1C1A1B"/>
<path d="M45.6151 37.6944C44.8029 37.6944 44.0881 37.5318 43.4708 37.2066C42.8535 36.8813 42.3662 36.3935 42.0413 35.7755C41.7164 35.1576 41.5215 34.4096 41.5215 33.564C41.5215 32.6858 41.6839 31.9378 42.0413 31.3199C42.3987 30.6694 42.8535 30.2141 43.4708 29.8563C44.0881 29.5311 44.8029 29.3359 45.5826 29.3359C46.3948 29.3359 47.1096 29.5311 47.7269 29.8563C48.3442 30.2141 48.799 30.6694 49.1239 31.3199C49.4488 31.9378 49.6437 32.6858 49.6437 33.564C49.6437 34.4096 49.4813 35.1576 49.1564 35.7755C48.8315 36.3935 48.3442 36.8813 47.7594 37.2066C47.1746 37.5318 46.4598 37.6944 45.6151 37.6944ZM45.5826 35.743C46.0699 35.743 46.4273 35.6455 46.7197 35.4503C46.9796 35.2552 47.207 34.995 47.337 34.6372C47.467 34.312 47.5319 33.9542 47.5319 33.5965C47.5319 33.2387 47.467 32.881 47.337 32.5232C47.207 32.1655 47.0121 31.9053 46.7197 31.6776C46.4598 31.45 46.0699 31.3524 45.5826 31.3524C45.1278 31.3524 44.7704 31.45 44.478 31.6776C44.1856 31.9053 43.9906 32.1655 43.8607 32.5232C43.7307 32.8485 43.6658 33.2062 43.6658 33.5965C43.6658 33.9542 43.7307 34.312 43.8607 34.6372C43.9906 34.9625 44.1856 35.2227 44.478 35.4503C44.7704 35.6129 45.1278 35.743 45.5826 35.743Z" fill="#1C1A1B"/>
<path d="M50.9756 40.6215V29.4985H52.9899L53.0874 30.5392C53.4123 30.1164 53.8021 29.7912 54.257 29.6286C54.7118 29.466 55.1667 29.3684 55.6865 29.3684C56.4662 29.3684 57.0835 29.5635 57.6033 29.9213C58.1232 30.2791 58.513 30.7994 58.7729 31.4174C59.0328 32.0678 59.1628 32.7508 59.1628 33.5314C59.1628 34.3119 59.0328 35.0275 58.7729 35.6454C58.513 36.2959 58.0907 36.7512 57.5708 37.1089C57.0185 37.4667 56.3363 37.6618 55.524 37.6618C55.1667 37.6618 54.8093 37.6293 54.5169 37.5317C54.2245 37.4342 53.9646 37.3366 53.7371 37.2065C53.5097 37.0764 53.3148 36.9138 53.1523 36.7512V40.5889L50.9756 40.6215ZM55.1342 35.743C55.6215 35.743 55.9789 35.6454 56.2713 35.4177C56.5637 35.1901 56.7261 34.9299 56.8561 34.6047C56.9536 34.2794 57.0185 33.9217 57.0185 33.5639C57.0185 33.1736 56.9536 32.8159 56.8236 32.4581C56.6936 32.1004 56.4987 31.8402 56.2063 31.6125C55.9464 31.4174 55.5565 31.2873 55.0692 31.2873C54.6468 31.2873 54.257 31.3848 53.9646 31.6125C53.6722 31.8077 53.4447 32.1004 53.2823 32.4256C53.1199 32.7508 53.0549 33.1411 53.0549 33.5314C53.0549 33.9217 53.1199 34.2794 53.2823 34.6372C53.4447 34.9624 53.6397 35.2551 53.9646 35.4503C54.2895 35.6454 54.6793 35.743 55.1342 35.743Z" fill="#1C1A1B"/>
<path d="M63.7423 37.6946C63.125 37.6946 62.6052 37.597 62.1503 37.3694C61.6955 37.1742 61.3381 36.8815 61.0132 36.4912C60.7208 36.1335 60.4934 35.6781 60.3309 35.1903C60.1685 34.7025 60.1035 34.1496 60.1035 33.5641C60.1035 32.7511 60.266 32.003 60.5584 31.3526C60.8508 30.7021 61.3056 30.2142 61.8579 29.8565C62.4427 29.4987 63.125 29.3036 63.9372 29.3036C64.3921 29.3036 64.7819 29.3686 65.2043 29.5313C65.5941 29.6939 65.9515 29.889 66.2114 30.2142L66.3089 29.4337H68.3232V37.532H66.2439L66.2114 36.7189C65.8866 37.0441 65.4967 37.2718 65.0743 37.4019C64.652 37.6295 64.1971 37.6946 63.7423 37.6946ZM64.2296 35.7432C64.652 35.7432 65.0093 35.6456 65.3017 35.4505C65.5941 35.2553 65.8216 34.9626 65.9515 34.6374C66.114 34.3122 66.1789 33.9219 66.1789 33.5316C66.1789 33.1088 66.114 32.7511 65.9515 32.4258C65.7891 32.1006 65.5941 31.8404 65.3017 31.6127C65.0093 31.4176 64.652 31.32 64.1971 31.32C63.7423 31.32 63.3849 31.4176 63.0925 31.6127C62.8001 31.8079 62.6052 32.0681 62.4427 32.4258C62.3128 32.7511 62.2478 33.1088 62.2478 33.4991C62.2478 33.8894 62.3128 34.2471 62.4427 34.6049C62.5727 34.9626 62.8001 35.2228 63.0925 35.418C63.3849 35.6456 63.7748 35.7432 64.2296 35.7432Z" fill="#1C1A1B"/>
<path d="M76.2181 39.8737V37.5971H70.0127V29.4988H72.157V35.6782H75.146V29.4988H77.3227V35.6782H78.3624V39.8737H76.2181Z" fill="#1C1A1B"/>
<path d="M79.3682 37.597V29.4987H81.5124V34.2796C81.5774 34.1821 81.6749 34.0845 81.7399 33.9544C81.8373 33.8568 81.9023 33.7593 81.9673 33.6617L85.2162 29.4662H87.1005V37.597H84.9238V32.8811C84.8588 32.9787 84.7613 33.1088 84.6964 33.2064C84.5989 33.3039 84.5339 33.4015 84.4364 33.5316L81.285 37.597H79.3682Z" fill="#1C1A1B"/>
<path d="M88.1748 37.5968L90.3841 34.5721C89.8642 34.4095 89.4419 34.1168 89.117 33.7265C88.7921 33.3037 88.6296 32.8159 88.6296 32.2304C88.6296 31.6775 88.7271 31.2222 88.8896 30.897C89.0845 30.5392 89.3119 30.2465 89.6368 30.0839C89.9617 29.8888 90.2866 29.7261 90.7089 29.6611C91.0988 29.5635 91.5212 29.531 91.976 29.531H95.7772V37.6618H93.633V35.0274H92.4309L90.7414 37.6618H88.1748V37.5968ZM92.4634 33.2061H93.6654V31.3198H92.106C91.911 31.3198 91.7161 31.3198 91.5537 31.3523C91.3912 31.3848 91.2613 31.4499 91.1638 31.5149C91.0663 31.58 90.9689 31.6775 90.9039 31.8076C90.8389 31.9377 90.8064 32.0678 90.8064 32.2304C90.8064 32.4581 90.8714 32.6207 90.9689 32.7508C91.0663 32.8809 91.2288 32.9785 91.3587 33.0435C91.5212 33.1086 91.7161 33.1411 91.911 33.1736C92.0735 33.1736 92.2684 33.2061 92.4634 33.2061Z" fill="#1C1A1B"/>
<path d="M5.91299 0H0V5.91923H5.91299V0Z" fill="#1C1A1B"/>
<path d="M72.3539 11.8386H66.5059V26.6367H72.3539V11.8386Z" fill="#1C1A1B"/>
<path d="M95.7761 5.91931H72.3516V11.8385H89.8631V26.6366H95.7761V5.91931Z" fill="#1C1A1B"/>
<path d="M47.6288 11.8385H62.8336V5.91931H46.5891C40.3188 5.91931 39.1816 11.123 39.1816 16.2617C39.1816 21.4004 40.2863 26.6366 46.5891 26.6366H62.8661V20.7174H47.6613C46.0693 20.7174 45.1271 19.0912 45.1271 17.4651V15.0583C45.0946 13.5298 46.0043 11.8385 47.6288 11.8385Z" fill="#1C1A1B"/>
<path d="M35.478 5.91931H26.6085L20.6956 14.7982L14.7826 5.91931H5.91309V26.6366H11.8261V11.7735L17.7391 20.7174H23.6845L29.565 11.7735V26.6366H35.478V5.91931Z" fill="#1C1A1B"/>
</svg>
