<svg width="128" height="51" viewBox="0 0 128 51" fill="none" xmlns="http://www.w3.org/2000/svg">
<path d="M21.6641 0C9.70195 0 0 9.69303 0 21.6552C0 33.6174 9.70195 43.3193 21.6641 43.3193C33.6263 43.3193 43.3193 33.6263 43.3193 21.6552C43.3193 9.68409 33.6263 0 21.6641 0Z" fill="#1C1A1B"/>
<path d="M26.3452 12.2033C26.3452 12.2033 26.3363 12.1855 26.3363 12.1676H16.4199L16.4646 12.3016C17.0453 14.0615 17.3669 15.9376 17.3669 17.8941C17.3669 19.8505 17.0453 21.7266 16.4646 23.4865L16.4199 23.6206H26.3363C26.3363 23.6206 26.3452 23.5938 26.3452 23.5848C26.9438 21.7981 27.2743 19.8863 27.2743 17.8941C27.2743 15.9019 26.9438 13.9901 26.3452 12.2033Z" fill="white"/>
<path d="M35.1277 16.7596C35.1277 16.7596 35.1277 16.7596 35.1188 16.7417H29.1689L29.1957 16.8221C29.5442 17.8763 29.7318 19.0019 29.7318 20.1812C29.7318 21.3604 29.5442 22.4771 29.1957 23.5402L29.1689 23.6117H35.1188C35.1188 23.6117 35.1277 23.6117 35.1277 23.5938C35.485 22.5218 35.6905 21.3783 35.6905 20.1812C35.6905 18.984 35.485 17.8316 35.1277 16.7596Z" fill="white"/>
<path d="M13.9002 16.7596C13.9002 16.7596 13.9002 16.7596 13.8912 16.7417H7.94141L7.96821 16.8221C8.31662 17.8763 8.50423 19.0019 8.50423 20.1812C8.50423 21.3604 8.31662 22.4771 7.96821 23.5402L7.94141 23.6117H13.8912C13.8912 23.6117 13.9002 23.6117 13.9002 23.5938C14.2575 22.5218 14.463 21.3783 14.463 20.1812C14.463 18.984 14.2575 17.8316 13.9002 16.7596Z" fill="white"/>
<path d="M12.3465 12.5787H10.0059L10.0237 12.6145C10.1577 13.0254 10.2292 13.4632 10.2292 13.9277C10.2292 14.3923 10.1577 14.83 10.0237 15.241L10.0059 15.2767H12.3465C12.4894 14.8479 12.5698 14.3923 12.5698 13.9277C12.5698 13.4632 12.4894 13.0076 12.3465 12.5877" fill="#1C1A1B"/>
<path d="M33.3493 12.5787H31.0176V12.6145C31.1605 13.0254 31.232 13.4632 31.232 13.9277C31.232 14.3923 31.1605 14.83 31.0265 15.241V15.2767H33.3493C33.4922 14.8479 33.5726 14.3923 33.5726 13.9277C33.5726 13.4632 33.4922 13.0076 33.3493 12.5877" fill="white"/>
<path d="M22.9801 6.86096H19.9248L19.9427 6.8967C20.1213 7.44165 20.2196 8.02234 20.2196 8.62089C20.2196 9.21945 20.1213 9.80014 19.9427 10.3451L19.9248 10.3808H22.9801C23.1677 9.82694 23.266 9.23732 23.266 8.62089C23.266 8.00447 23.1677 7.41485 22.9801 6.8699" fill="white"/>
<path d="M31.5888 32.3488L34.9836 25.8362L7.94141 25.7826L11.8454 32.2952H21.2704V34.6716C20.7076 34.8771 20.3056 35.4131 20.3056 36.0384C20.3056 36.7889 20.8863 37.4053 21.6188 37.4768C21.6635 37.4768 21.7082 37.4946 21.7528 37.4946H21.7618C22.5747 37.4946 23.2269 36.8425 23.2269 36.0384C23.2269 35.4041 22.8249 34.8771 22.2621 34.6716V32.2952L31.5888 32.3488Z" fill="white"/>
<path d="M127.797 48.8947H53.665V50.9851H127.797V48.8947Z" fill="#1C1A1B"/>
<path d="M61.3494 2.96611H56.0428V12.9182H53.9434V1.00964H63.4398V12.9182H61.3494V2.96611Z" fill="#1C1A1B"/>
<path d="M66.6641 1.00964H68.7724L72.8372 6.57531L76.7234 1.00964H78.6977V12.9182H76.6162V4.3151L72.8551 9.60382H72.5513L68.7545 4.35977V12.9182H66.6641V1.00964Z" fill="#1C1A1B"/>
<path d="M83.4416 5.87835H88.7482C88.3461 3.88614 86.7113 2.77837 84.46 2.77837C83.513 2.77837 82.5035 3.07318 81.6727 3.69854L80.8508 2.13515C81.6906 1.42045 83.1378 0.821899 84.9603 0.821899C88.4623 0.821899 90.9458 3.24292 90.9458 6.95039C90.9458 10.6579 88.5338 13.1146 84.7191 13.1146C83.0664 13.1146 81.5566 12.5875 80.7168 11.8728L81.6191 10.1129C82.3695 10.6936 83.4416 11.1581 84.6833 11.1581C86.7292 11.1581 88.4444 10.0325 88.8018 7.83482H83.4416V5.87835Z" fill="#1C1A1B"/>
<path d="M99.8073 4.04706V9.55913C101.969 9.54126 103.095 8.6211 103.095 6.79863C103.095 5.1995 102.041 4.07386 99.8073 4.04706ZM97.7169 9.55913V4.04706C95.5371 4.04706 94.4293 5.18164 94.4293 6.79863C94.4293 8.58536 95.6264 9.54126 97.7169 9.55913ZM97.7169 11.4799C94.4293 11.4799 92.2227 9.80927 92.2227 6.79863C92.2227 3.78799 94.4471 2.17099 97.7169 2.11739V0.87561H99.8073V2.11739C103.059 2.17099 105.31 3.87732 105.31 6.79863C105.31 9.71994 103.059 11.462 99.8073 11.4799V13.0611H97.7169V11.4799Z" fill="#1C1A1B"/>
<path d="M107.063 4.5115C106.706 4.13629 106.482 3.49306 106.482 2.93024C106.482 1.34898 107.456 0.428816 108.189 0L109.091 0.839766C108.591 1.24178 108.323 1.87607 108.323 2.50143C108.323 2.91238 108.475 3.32332 108.716 3.5556L107.063 4.5115Z" fill="#1C1A1B"/>
<path d="M57.462 17.09H54.6032V21.7623H53.96V16.4915H58.1052V21.7623H57.462V17.09Z" fill="#1C1A1B"/>
<path d="M59.8389 16.4827H62.8138V17.0812H60.4821V18.7875H62.5904V19.3861H60.4821V21.155H62.8942V21.7535H59.8389V16.4827Z" fill="#1C1A1B"/>
<path d="M63.6104 16.4827H67.9432V17.0812H66.0939V21.7535H65.4596V17.0812H63.6104V16.4827Z" fill="#1C1A1B"/>
<path d="M68.96 16.4827H71.9349V17.0812H69.6032V18.7875H71.7115V19.3861H69.6032V21.155H72.0063V21.7535H68.96V16.4827Z" fill="#1C1A1B"/>
<path d="M74.0885 17.0901V19.127C74.3387 19.1448 74.5888 19.1627 74.8568 19.1627C75.6251 19.1627 76.0986 18.7607 76.0986 18.0996C76.0986 17.4742 75.7234 17.0811 74.8836 17.0811C74.6692 17.0811 74.0885 17.0811 74.0885 17.0811M73.4453 21.7534V16.4826C73.7401 16.4826 74.4906 16.4647 74.8211 16.4647C76.3309 16.4647 76.7776 17.2777 76.7776 18.0996C76.7776 18.9215 76.1612 19.7612 74.8747 19.7612C74.6692 19.7612 74.3476 19.7612 74.0885 19.7255V21.7534H73.4453Z" fill="#1C1A1B"/>
<path d="M78.7321 19.1985V21.155C78.9644 21.155 79.1966 21.1818 79.4557 21.1818C80.3223 21.1818 80.7422 20.7887 80.7422 20.1544C80.7422 19.5648 80.3401 19.1538 79.5004 19.1538C79.2949 19.1538 79.009 19.1717 78.7321 19.1985ZM78.0889 16.4827H81.0727V17.0812H78.7321V18.5999C78.9912 18.5731 79.3306 18.5553 79.5361 18.5553C80.7154 18.5553 81.3764 19.1538 81.3764 20.1097C81.3764 21.1996 80.6171 21.7893 79.3574 21.7893C78.8214 21.7893 78.4015 21.7535 78.0889 21.7535V16.4827Z" fill="#1C1A1B"/>
<path d="M85.1496 20.5563C84.7922 21.3603 84.417 21.7623 83.8363 21.7623C83.6041 21.7623 83.345 21.6819 83.202 21.5747L83.4254 21.0298C83.5683 21.128 83.6845 21.1638 83.8274 21.1638C84.1311 21.1638 84.3366 20.9315 84.4796 20.6277L84.5689 20.4401L82.1836 16.4915H82.9072L84.8816 19.7969L86.3288 16.4915H86.972L85.1496 20.5563Z" fill="#1C1A1B"/>
<path d="M88.6676 17.0901V19.127C88.9178 19.1448 89.1679 19.1627 89.4359 19.1627C90.2132 19.1627 90.6777 18.7607 90.6777 18.0996C90.6777 17.4742 90.3025 17.0811 89.4627 17.0811C89.2483 17.0811 88.6676 17.0811 88.6676 17.0811M88.0244 21.7534V16.4826C88.3192 16.4826 89.0696 16.4647 89.4002 16.4647C90.91 16.4647 91.3567 17.2777 91.3567 18.0996C91.3567 18.9215 90.7403 19.7612 89.4538 19.7612C89.2483 19.7612 88.9267 19.7612 88.6676 19.7255V21.7534H88.0244Z" fill="#1C1A1B"/>
<path d="M92.6689 16.4827H95.6081V17.0812H93.3122V21.7535H92.6689V16.4827Z" fill="#1C1A1B"/>
<path d="M100.343 21.2444C99.9854 21.6017 99.3332 21.834 98.6811 21.834C97.0998 21.834 96.001 20.7619 96.001 19.1182C96.001 17.6084 96.9837 16.4113 98.6364 16.4113C99.3064 16.4113 99.8603 16.5989 100.236 16.9205L99.9407 17.4029C99.6012 17.1438 99.1903 17.0098 98.6364 17.0098C97.4929 17.0098 96.6799 17.8674 96.6799 19.1182C96.6799 20.3689 97.5197 21.2265 98.7347 21.2265C99.2439 21.2265 99.7263 21.0568 100.084 20.7619L100.343 21.2444Z" fill="#1C1A1B"/>
<path d="M103.025 18.9573L105.5 21.7535H104.678L102.284 19.002L104.598 16.4827H105.375L103.025 18.9573ZM101.516 16.4827H102.159V21.7535H101.516V16.4827Z" fill="#1C1A1B"/>
<path d="M106.589 21.7623V16.4915H107.232V20.7081L110.43 16.4915H110.993V21.7623H110.359V17.5456L107.152 21.7623H106.589Z" fill="#1C1A1B"/>
<path d="M114.172 15.2855C114.288 15.5893 114.547 15.7769 114.976 15.7769C115.369 15.7769 115.673 15.6161 115.753 15.2855H116.352C116.289 15.8483 115.7 16.2236 114.976 16.2236C114.19 16.2236 113.663 15.8305 113.564 15.2855H114.172ZM112.725 21.7624V16.4916H113.368V20.7083L116.566 16.4916H117.129V21.7624H116.495V17.5457L113.287 21.7624H112.725Z" fill="#1C1A1B"/>
<path d="M53.9258 24.1121H54.5779L56.5523 26.819L58.4551 24.1121H59.0626V29.3829H58.4194V25.1216L56.5523 27.7391H56.454L54.569 25.1484V29.3829H53.9258V24.1121Z" fill="#1C1A1B"/>
<path d="M60.6172 24.1121H63.5921V24.7106H61.2604V26.4169H63.3688V27.0155H61.2604V28.7844H63.6725V29.3829H60.6172V24.1121Z" fill="#1C1A1B"/>
<path d="M69.0839 26.6314L71.2905 29.3829H70.549L68.3781 26.6403L70.4686 24.1121H71.2101L69.0839 26.6314ZM67.6009 24.1121H68.2441V29.3829H67.6009V24.1121ZM64.6439 24.1121H65.3854L67.4758 26.6403L65.305 29.3829H64.5635L66.779 26.6403L64.6439 24.1121Z" fill="#1C1A1B"/>
<path d="M73.2832 28.7844H75.9633V24.7195H74.1141L74.0515 25.6576C73.9175 27.4711 73.4798 28.5432 73.2832 28.7844ZM72.0146 28.7844H72.5775C72.8008 28.5164 73.3279 27.3728 73.444 25.1662L73.4976 24.1121H76.5976V28.7844H77.3212V30.3656H76.7137V29.3829H72.6132V30.3656H72.0146V28.7844Z" fill="#1C1A1B"/>
<path d="M80.672 28.1769C80.3147 28.9809 79.9395 29.3829 79.3588 29.3829C79.1265 29.3829 78.8674 29.3115 78.7245 29.1953L78.9478 28.6504C79.0908 28.7486 79.2069 28.7844 79.3498 28.7844C79.6536 28.7844 79.8591 28.5521 80.002 28.2483L80.0913 28.0607L77.7061 24.1121H78.4297L80.404 27.4175L81.8513 24.1121H82.4945L80.672 28.1769Z" fill="#1C1A1B"/>
<path d="M87.0699 26.9976H84.1665V29.3829H83.5322V24.1121H84.1665V26.3991H87.0699V24.1121H87.7132V29.3829H87.0699V26.9976Z" fill="#1C1A1B"/>
<path d="M90.3028 27.1852H92.2057L91.2587 24.9339L90.3028 27.1852ZM90.9996 24.0852H91.5535L93.8137 29.3918H93.1348L92.4558 27.7927H90.0527L89.3826 29.3918H88.7305L90.9996 24.0852Z" fill="#1C1A1B"/>
<path d="M95.4928 24.7106V26.7474C95.743 26.7653 95.9931 26.7832 96.2611 26.7832C97.0294 26.7832 97.5029 26.3812 97.5029 25.7201C97.5029 25.0947 97.1277 24.7016 96.2879 24.7016C96.0735 24.7016 95.4928 24.7016 95.4928 24.7016M94.8496 29.3739V24.1031C95.1444 24.1031 95.8948 24.0852 96.2254 24.0852C97.7352 24.0852 98.1819 24.8982 98.1819 25.7201C98.1819 26.542 97.5654 27.3817 96.279 27.3817C96.0735 27.3817 95.7519 27.3817 95.4928 27.346V29.3739H94.8496Z" fill="#1C1A1B"/>
<path d="M101.782 28.8648C102.988 28.8648 103.792 27.9447 103.792 26.7565C103.792 25.5683 102.907 24.6392 101.782 24.6392C100.656 24.6392 99.7717 25.5236 99.7717 26.7565C99.7717 27.9893 100.647 28.8648 101.782 28.8648ZM101.782 24.0406C103.309 24.0406 104.471 25.1484 104.471 26.7565C104.471 28.3645 103.309 29.4634 101.782 29.4634C100.254 29.4634 99.0928 28.3556 99.0928 26.7565C99.0928 25.1574 100.218 24.0406 101.782 24.0406Z" fill="#1C1A1B"/>
<path d="M106.206 28.7844H108.886V24.7195H107.037L106.974 25.6576C106.84 27.4711 106.403 28.5432 106.206 28.7844ZM104.938 28.7844H105.5C105.724 28.5164 106.26 27.3728 106.367 25.1662L106.42 24.1121H109.52V28.7844H110.244V30.3656H109.637V29.3829H105.536V30.3656H104.938V28.7844Z" fill="#1C1A1B"/>
<path d="M114.871 26.9976H111.967V29.3829H111.333V24.1121H111.967V26.3991H114.871V24.1121H115.514V29.3829H114.871V26.9976Z" fill="#1C1A1B"/>
<path d="M121.195 24.1121H121.838V29.3829H121.195V24.1121ZM117.693 26.676V28.7754C117.898 28.7754 118.086 28.7933 118.327 28.7933C119.194 28.7933 119.667 28.4181 119.667 27.6766C119.667 27.0066 119.203 26.6314 118.345 26.6314C118.175 26.6314 117.961 26.6492 117.693 26.676ZM117.693 26.0685C117.979 26.0417 118.22 26.0328 118.399 26.0328C119.721 26.0328 120.346 26.6671 120.346 27.6587C120.346 28.7665 119.56 29.4008 118.247 29.4008C117.8 29.4008 117.362 29.3829 117.05 29.3829V24.1121H117.693V26.0685Z" fill="#1C1A1B"/>
<path d="M124.842 22.9059C124.949 23.2096 125.217 23.3972 125.646 23.3972C126.039 23.3972 126.343 23.2364 126.423 22.9059H127.022C126.959 23.4687 126.369 23.8439 125.646 23.8439C124.86 23.8439 124.333 23.4508 124.234 22.9059H124.842ZM123.395 29.3828V24.1119H124.038V28.3286L127.236 24.1119H127.799V29.3828H127.165V25.1661L123.957 29.3828H123.395Z" fill="#1C1A1B"/>
<path d="M54.8532 34.0195H57.4618C57.3278 32.9207 56.5059 32.2685 55.3267 32.2685C54.8622 32.2685 54.3887 32.3936 53.9956 32.6973L53.7455 32.2149C54.1207 31.8843 54.7639 31.661 55.4786 31.661C57.042 31.661 58.1229 32.7152 58.1229 34.359C58.1229 36.0028 57.0688 37.0837 55.416 37.0837C54.7192 37.0837 54.0849 36.8783 53.665 36.5388L53.942 36.0028C54.3351 36.2976 54.8354 36.4852 55.4071 36.4852C56.5149 36.4852 57.3546 35.7794 57.4708 34.627H54.8532V34.0195Z" fill="#1C1A1B"/>
<path d="M60.9462 34.2158L63.4208 37.0121H62.5989L60.2136 34.2605L62.5274 31.7412H63.2957L60.9462 34.2158ZM59.4453 31.7412H60.0885V37.0121H59.4453V31.7412Z" fill="#1C1A1B"/>
<path d="M66.4673 36.4941C67.6734 36.4941 68.4774 35.5739 68.4774 34.3857C68.4774 33.1976 67.593 32.2685 66.4673 32.2685C65.3417 32.2685 64.4573 33.1529 64.4573 34.3857C64.4573 35.6186 65.3328 36.4941 66.4673 36.4941ZM66.4673 31.6699C67.995 31.6699 69.1564 32.7777 69.1564 34.3857C69.1564 35.9938 67.995 37.0927 66.4673 37.0927C64.9397 37.0927 63.7783 35.9849 63.7783 34.3857C63.7783 32.7866 64.904 31.6699 66.4673 31.6699Z" fill="#1C1A1B"/>
<path d="M74.025 34.6268H71.1216V37.0121H70.4873V31.7412H71.1216V34.0193H74.025V31.7412H74.6683V37.0121H74.025V34.6268Z" fill="#1C1A1B"/>
<path d="M78.6714 36.4941C79.8775 36.4941 80.6815 35.5739 80.6815 34.3857C80.6815 33.1976 79.806 32.2685 78.6714 32.2685C77.5369 32.2685 76.6614 33.1529 76.6614 34.3857C76.6614 35.6186 77.5458 36.4941 78.6714 36.4941ZM78.6714 31.6699C80.1991 31.6699 81.3605 32.7777 81.3605 34.3857C81.3605 35.9938 80.1991 37.0927 78.6714 37.0927C77.1438 37.0927 75.9824 35.9849 75.9824 34.3857C75.9824 32.7866 77.1081 31.6699 78.6714 31.6699Z" fill="#1C1A1B"/>
<path d="M82.6826 31.7412H83.3348L85.3091 34.4481L87.212 31.7412H87.8195V37.0121H87.1762V32.7507L85.3091 35.3683H85.2108L83.3258 32.7775V37.0121H82.6826V31.7412Z" fill="#1C1A1B"/>
<path d="M89.5518 37.0121V31.7412H90.195V35.9579L93.3932 31.7412H93.9561V37.0121H93.3218V32.7954L90.1146 37.0121H89.5518Z" fill="#1C1A1B"/>
<path d="M99.0029 37.0121H98.3597V34.7072C98.0917 34.9037 97.5824 35.1181 96.966 35.1181C96.1352 35.1181 95.3848 34.6625 95.3848 33.4297V31.7412H96.028V33.2599C96.028 34.1712 96.4925 34.5107 97.1358 34.5107C97.645 34.5107 98.0827 34.2962 98.3597 34.1086V31.7412H99.0029V37.0121Z" fill="#1C1A1B"/>
<path d="M100.747 31.7412H103.713V32.3398H101.381V34.0461H103.49V34.6447H101.381V36.4135H103.793V37.0121H100.747V31.7412Z" fill="#1C1A1B"/>
<path d="M109.154 36.503C108.797 36.8604 108.145 37.0927 107.493 37.0927C105.911 37.0927 104.812 36.0206 104.812 34.3768C104.812 32.867 105.795 31.6699 107.448 31.6699C108.127 31.6699 108.672 31.8575 109.047 32.1791L108.752 32.6616C108.413 32.4025 108.002 32.2685 107.448 32.2685C106.304 32.2685 105.491 33.1261 105.491 34.3768C105.491 35.6275 106.331 36.4852 107.546 36.4852C108.055 36.4852 108.538 36.3154 108.895 36.0206L109.154 36.503Z" fill="#1C1A1B"/>
<path d="M111.823 34.2158L114.298 37.0121H113.476L111.091 34.2605L113.395 31.7412H114.173L111.823 34.2158ZM110.322 31.7412H110.965V37.0121H110.322V31.7412Z" fill="#1C1A1B"/>
<path d="M115.388 37.0121V31.7412H116.031V35.9579L119.229 31.7412H119.792V37.0121H119.158V32.7954L115.951 37.0121H115.388Z" fill="#1C1A1B"/>
<path d="M122.982 30.5353C123.099 30.839 123.358 31.0266 123.786 31.0266C124.18 31.0266 124.483 30.8658 124.564 30.5353H125.162C125.1 31.0981 124.51 31.4733 123.786 31.4733C123 31.4733 122.473 31.0802 122.375 30.5353H122.982ZM121.535 37.0122V31.7413H122.178V35.958L125.377 31.7413H125.939V37.0122H125.305V32.7955L122.098 37.0122H121.535Z" fill="#1C1A1B"/>
<path d="M56.934 40.4428V43.4177C58.0686 43.4177 58.7743 42.9174 58.7743 41.9258C58.7743 41.0056 58.1043 40.4428 56.934 40.4428ZM56.2729 43.4177V40.4428C55.1383 40.4428 54.4504 41.0056 54.4504 41.9258C54.4504 42.9085 55.1651 43.4177 56.2729 43.4177ZM56.2818 44.0073C54.7989 44.0073 53.7715 43.2658 53.7715 41.9258C53.7715 40.5857 54.7721 39.8532 56.2818 39.8532V39.3082H56.9251V39.8532C58.4438 39.8532 59.4533 40.6215 59.4533 41.9258C59.4533 43.2301 58.417 44.0073 56.9429 44.0073H56.9251V44.7042H56.2818V44.0073Z" fill="#1C1A1B"/>
<path d="M62.9752 44.1146C64.1812 44.1146 64.9852 43.1944 64.9852 42.0062C64.9852 40.8181 64.1097 39.8979 62.9752 39.8979C61.8406 39.8979 60.9651 40.7734 60.9651 42.0062C60.9651 43.2391 61.8406 44.1146 62.9752 44.1146ZM62.9752 39.2904C64.5028 39.2904 65.6642 40.3982 65.6642 42.0062C65.6642 43.6143 64.5028 44.7131 62.9752 44.7131C61.4475 44.7131 60.2861 43.6054 60.2861 42.0062C60.2861 40.4071 61.4118 39.2904 62.9752 39.2904Z" fill="#1C1A1B"/>
<path d="M67.6286 39.9693V42.0062C67.8787 42.0241 68.1289 42.042 68.3969 42.042C69.1741 42.042 69.6387 41.6399 69.6387 40.9789C69.6387 40.3535 69.2634 39.9604 68.4237 39.9604C68.2093 39.9604 67.6286 39.9604 67.6286 39.9604M66.9854 44.6327V39.3619C67.2802 39.3619 68.0306 39.344 68.3611 39.344C69.8709 39.344 70.3176 40.157 70.3176 40.9789C70.3176 41.8008 69.7012 42.6405 68.4147 42.6405C68.2093 42.6405 67.8877 42.6405 67.6286 42.6048V44.6327H66.9854Z" fill="#1C1A1B"/>
<path d="M73.6867 43.4354C73.3204 44.2395 72.9541 44.6415 72.3734 44.6415C72.1411 44.6415 71.8821 44.5611 71.7391 44.4539L71.9625 43.9089C72.1054 44.0072 72.2216 44.0429 72.3645 44.0429C72.6682 44.0429 72.8737 43.8106 73.0166 43.5069L73.106 43.3104L70.7207 39.3706H71.4443L73.4187 42.6761L74.8659 39.3706H75.5091L73.6867 43.4354Z" fill="#1C1A1B"/>
<path d="M76.5625 39.3706H77.2147L79.189 42.0775L81.0919 39.3706H81.6994V44.6415H81.0561V40.3801L79.189 42.9977H79.0907L77.2057 40.398V44.6415H76.5625V39.3706Z" fill="#1C1A1B"/>
<path d="M110.403 11.3637C112.333 9.46978 115.335 6.71821 115.335 4.42226C115.335 3.46636 114.808 2.87674 113.825 2.87674C112.976 2.87674 112.369 3.46636 112.11 4.46693L110.484 3.7433C110.814 2.01017 112.163 0.929199 114.048 0.929199C116.3 0.929199 117.398 2.45686 117.398 4.02918C117.398 7.3525 113.861 10.3453 112.932 11.1136H117.854V12.9182H110.403V11.3637Z" fill="#1C1A1B"/>
<path d="M120.802 1.06311H126.413V3.01065H122.509L122.178 5.36913C122.357 5.3334 122.616 5.29766 122.848 5.29766C124.956 5.29766 126.582 6.73598 126.582 9.0766C126.582 11.6316 124.751 13.1057 122.5 13.1057C121.222 13.1057 119.748 12.5339 119.024 11.4172L120.141 9.94317C120.65 10.6847 121.651 11.1581 122.544 11.1581C123.679 11.1581 124.492 10.3273 124.492 9.157C124.492 7.9867 123.563 7.0576 121.973 7.0576C121.213 7.0576 120.382 7.20947 120.025 7.36134L120.802 1.06311Z" fill="#1C1A1B"/>
</svg>
