<svg width="163" height="41" viewBox="0 0 163 41" fill="none" xmlns="http://www.w3.org/2000/svg">
<path d="M99.9394 10.8706H99.4635L94.1264 0.421897H91.2711L98.4997 13.6802V18.7998H100.93V13.6802L108.159 0.421897H105.198L99.9394 10.8706ZM26.7311 0C21.0746 0 17.894 4.33267 17.894 9.61087C17.894 14.8891 21.0656 19.2187 26.7219 19.2187C32.3785 19.2187 35.5501 14.8891 35.5501 9.61087C35.5501 4.33267 32.3875 0 26.7311 0ZM26.7311 17.1452C22.8998 17.1452 20.4933 13.8538 20.4933 9.61087C20.4933 5.36797 22.9028 2.07358 26.7311 2.07358C30.5593 2.07358 32.9689 5.32907 32.9689 9.61087C32.9689 13.8927 30.5622 17.1452 26.7311 17.1452ZM80.91 18.0638H80.4372L75.097 0.409936H72.2417L78.163 18.7879H83.2833L89.0994 0.409936H86.1447L80.91 18.0638ZM135.884 18.0638H135.408L130.071 0.409936H127.228L133.149 18.7879H138.131L144.209 0.409936H141.119L135.884 18.0638ZM9.81595 8.77005C8.00877 8.24344 5.34923 7.57319 4.50286 7.24704C4.0213 7.07802 3.60727 6.75956 3.32196 6.33871C3.03665 5.91788 2.89522 5.41702 2.91858 4.91017C2.91858 3.25548 4.29202 2.07358 6.98771 2.07358C10.1322 2.07358 11.2045 4.0963 11.2045 6.48704H13.7676C13.7676 2.46856 11.2858 0 7.00278 0C3.3282 0 0.499984 1.99578 0.499984 4.91017C0.499984 6.74735 0.924672 8.66533 4.3613 9.66174C5.52392 10.0028 8.35213 10.6611 9.62016 11.1339C11.0719 11.6575 11.7617 12.8394 11.7617 13.9435C11.7617 15.9633 9.83099 17.1452 7.21362 17.1452C4.20167 17.1452 2.43065 15.5174 2.43065 12.63H0C0 16.7263 2.1927 19.2127 7.22867 19.2127C10.8761 19.2127 14.3911 17.6658 14.3911 13.9376C14.361 11.08 12.6442 9.61085 9.81595 8.77005ZM114.159 16.6215V10.3709H122.379V8.37511H114.159V2.57328H123.412V0.421897H111.728V18.7998H123.412V16.6215H114.159ZM153.829 1.15498L159.064 18.8088H162.049L156.236 0.430873H151.082L145.161 18.8088H148.01L153.347 1.15498H153.829ZM61.4076 0C55.7511 0 52.5796 4.33267 52.5796 9.61087C52.5796 14.8891 55.7511 19.2187 61.4076 19.2187C67.064 19.2187 70.2327 14.8891 70.2327 9.61087C70.2327 4.33267 67.0609 0 61.4076 0ZM61.4076 17.1452C57.5734 17.1452 55.1698 13.8538 55.1698 9.61087C55.1698 5.36797 57.5793 2.07358 61.4076 2.07358C65.2358 2.07358 67.6423 5.32907 67.6423 9.61087C67.6423 13.8927 65.2389 17.1452 61.4076 17.1452ZM42.5348 16.6215V0.421897H40.0259V18.7998H51.6549V16.6215H42.5348Z" fill="#1C1A1B"/>
<path d="M48.2646 40.4733V40.1769L49.2935 39.8067V32.8445L48.2646 32.4743V32.178H51.0232C51.9874 32.178 52.7481 32.3361 53.3048 32.6521C53.8713 32.9681 54.1545 33.437 54.1545 34.0592C54.1545 34.5233 54.0056 34.938 53.7073 35.3034C53.419 35.659 53.0115 35.9108 52.4845 36.0591C53.2499 36.1578 53.8464 36.3849 54.274 36.7405C54.7112 37.0958 54.9301 37.5402 54.9301 38.0735C54.9301 38.5278 54.7809 38.9375 54.4826 39.3029C54.1943 39.6685 53.7868 39.9548 53.26 40.1621C52.7431 40.3695 52.1466 40.4733 51.4707 40.4733H48.2646ZM50.9487 32.815H50.3671V35.8664H51.0083C51.6148 35.8664 52.1069 35.7431 52.4845 35.496C52.8723 35.2394 53.0661 34.8492 53.0661 34.3259C53.0661 33.8321 52.8822 33.4569 52.5144 33.2001C52.1466 32.9432 51.6246 32.815 50.9487 32.815ZM51.4556 36.4887H50.3671V39.8362H51.5452C52.2113 39.8362 52.7529 39.698 53.1704 39.4215C53.5978 39.1352 53.8117 38.7204 53.8117 38.1773C53.8117 37.5649 53.5978 37.1305 53.1704 36.8737C52.7529 36.6168 52.1813 36.4887 51.4556 36.4887Z" fill="#1C1A1B"/>
<path d="M63.204 40.6213C62.5578 40.6213 61.9812 40.5128 61.4743 40.2955C60.9672 40.0782 60.5647 39.7325 60.2664 39.2586C59.9781 38.7746 59.8339 38.1476 59.8339 37.3773V32.8445L58.7754 32.4743V32.178H61.9664V32.4743L60.9076 32.8445V37.2441C60.9076 38.2513 61.1312 38.9524 61.5787 39.3474C62.026 39.7425 62.6373 39.9399 63.4128 39.9399C63.8502 39.9399 64.2477 39.8561 64.6057 39.6881C64.9734 39.5104 65.2617 39.2487 65.4705 38.903C65.6891 38.5475 65.7985 38.0982 65.7985 37.5551V32.815L64.5312 32.4743V32.178H67.5581V32.4743L66.5142 32.8297V37.3773C66.5142 38.1476 66.3701 38.7746 66.0818 39.2586C65.7935 39.7325 65.4008 40.0782 64.904 40.2955C64.4069 40.5128 63.8402 40.6213 63.204 40.6213Z" fill="#1C1A1B"/>
<path d="M71.8779 40.4733V40.1769L72.9367 39.8067V32.8445L71.8779 32.4743V32.178H74.89C75.8145 32.178 76.5402 32.3656 77.067 32.741C77.594 33.1162 77.8574 33.6198 77.8574 34.2519C77.8574 34.7555 77.6984 35.18 77.3802 35.5258C77.072 35.8713 76.6496 36.1379 76.1128 36.3255L78.4837 39.8511L79.4082 40.1769V40.4733H77.5442L75.054 36.6219H73.9953V39.7919L74.9796 40.1769V40.4733H71.8779ZM74.8153 32.815H73.9953V35.9848H74.89C75.4467 35.9848 75.889 35.8418 76.217 35.5552C76.5452 35.2689 76.7093 34.8887 76.7093 34.4148C76.7093 33.9013 76.5452 33.5063 76.217 33.2298C75.889 32.9533 75.4218 32.815 74.8153 32.815Z" fill="#1C1A1B"/>
<path d="M82.7119 40.4733V40.1769L83.7556 39.8067V32.8445L82.7119 32.4743V32.178H88.8702V34.2519H88.6018L87.9754 32.815H84.8293V35.8664H87.1257L87.5133 34.8444H87.7667V37.4959H87.5133L87.1257 36.4887H84.8293V39.8362H88.3185L88.9746 38.2068H89.2282V40.4733H82.7119Z" fill="#1C1A1B"/>
<path d="M93.1533 40.4733V40.177L93.8841 39.8957L97.1943 32.104H97.6865L100.967 39.8511L101.802 40.177V40.4733H98.7451V40.177L99.8187 39.866L98.8198 37.4811H95.6585L94.6744 39.8808L95.7926 40.177V40.4733H93.1533ZM95.9121 36.8589H98.5662L97.2242 33.6446L95.9121 36.8589Z" fill="#1C1A1B"/>
<path d="M109.429 40.6213C108.783 40.6213 108.206 40.5128 107.699 40.2955C107.192 40.0782 106.789 39.7325 106.491 39.2586C106.203 38.7746 106.059 38.1476 106.059 37.3773V32.8445L105 32.4743V32.178H108.191V32.4743L107.132 32.8445V37.2441C107.132 38.2513 107.356 38.9524 107.803 39.3474C108.251 39.7425 108.862 39.9399 109.637 39.9399C110.075 39.9399 110.473 39.8561 110.83 39.6881C111.198 39.5104 111.486 39.2487 111.695 38.903C111.914 38.5475 112.023 38.0982 112.023 37.5551V32.815L110.756 32.4743V32.178H113.783V32.4743L112.739 32.8297V37.3773C112.739 38.1476 112.595 38.7746 112.307 39.2586C112.018 39.7325 111.626 40.0782 111.129 40.2955C110.632 40.5128 110.065 40.6213 109.429 40.6213Z" fill="#1C1A1B"/>
</svg>
